G04*
G04 #@! TF.GenerationSoftware,Altium Limited,Altium Designer,18.1.6 (161)*
G04*
G04 Layer_Color=65535*
%FSLAX25Y25*%
%MOIN*%
G70*
G01*
G75*
%ADD10C,0.00600*%
%ADD11C,0.01000*%
%ADD12C,0.00700*%
%ADD13C,0.01500*%
%ADD14C,0.00787*%
%ADD15C,0.00984*%
%ADD16C,0.02000*%
%ADD17C,0.00400*%
%ADD18C,0.00800*%
%ADD19C,0.01968*%
%ADD20C,0.00591*%
G36*
X18845Y46181D02*
X16345Y48681D01*
Y47181D01*
X13845D01*
Y45181D01*
X16345D01*
Y43681D01*
X18845Y46181D01*
D02*
G37*
G36*
X18595Y66181D02*
X16095Y68681D01*
Y67181D01*
X13595D01*
Y65181D01*
X16095D01*
Y63681D01*
X18595Y66181D01*
D02*
G37*
G36*
X135973Y172334D02*
X138473Y169834D01*
Y174834D01*
X135973Y172334D01*
D02*
G37*
D10*
X176982Y83906D02*
G03*
X176982Y83906I-5000J0D01*
G01*
X163982Y93405D02*
X179482D01*
X183482Y78405D02*
Y87906D01*
X164082Y73405D02*
X179482D01*
X160982Y78405D02*
Y87906D01*
D11*
X122493Y301972D02*
G03*
X122493Y301972I-5910J0D01*
G01*
X107996Y293559D02*
X110996Y290559D01*
X107996Y287559D02*
X110996Y290559D01*
X90996D02*
X110996D01*
X142496Y264059D02*
Y309059D01*
X70496D02*
X142496D01*
X70496Y264059D02*
Y309059D01*
Y264059D02*
X142496D01*
X107996Y287559D02*
X110996Y290559D01*
X155073Y105718D02*
Y99720D01*
X158072D01*
X159072Y100719D01*
Y101719D01*
X158072Y102719D01*
X155073D01*
X158072D01*
X159072Y103718D01*
Y104718D01*
X158072Y105718D01*
X155073D01*
X161071D02*
X165070D01*
X163070D01*
Y99720D01*
X167069D02*
X169068D01*
X168069D01*
Y105718D01*
X167069Y104718D01*
X7197Y268872D02*
Y263874D01*
X8196Y262874D01*
X10196D01*
X11196Y263874D01*
Y268872D01*
X13195Y267872D02*
X14195Y268872D01*
X16194D01*
X17194Y267872D01*
Y266873D01*
X16194Y265873D01*
X15194D01*
X16194D01*
X17194Y264873D01*
Y263874D01*
X16194Y262874D01*
X14195D01*
X13195Y263874D01*
X70996Y318557D02*
Y313559D01*
X71996Y312559D01*
X73995D01*
X74995Y313559D01*
Y318557D01*
X76994Y312559D02*
X78993D01*
X77994D01*
Y318557D01*
X76994Y317557D01*
X158995Y145586D02*
X157995Y146586D01*
X155996D01*
X154996Y145586D01*
Y144586D01*
X155996Y143586D01*
X157995D01*
X158995Y142587D01*
Y141587D01*
X157995Y140587D01*
X155996D01*
X154996Y141587D01*
X160994Y146586D02*
Y140587D01*
X162994Y142587D01*
X164993Y140587D01*
Y146586D01*
X166992Y140587D02*
X168991D01*
X167992D01*
Y146586D01*
X166992Y145586D01*
X113949Y219883D02*
Y225881D01*
X115948Y223881D01*
X117947Y225881D01*
Y219883D01*
X119947Y225881D02*
Y219883D01*
X122946D01*
X123946Y220882D01*
Y224881D01*
X122946Y225881D01*
X119947D01*
X125945Y219883D02*
X127944D01*
X126945D01*
Y225881D01*
X125945Y224881D01*
X30937Y333885D02*
X28938D01*
X29938D01*
Y328886D01*
X28938Y327887D01*
X27938D01*
X26939Y328886D01*
X32937Y333885D02*
Y327887D01*
X35936D01*
X36935Y328886D01*
Y332885D01*
X35936Y333885D01*
X32937D01*
X42933Y332885D02*
X41934Y333885D01*
X39934D01*
X38935Y332885D01*
Y328886D01*
X39934Y327887D01*
X41934D01*
X42933Y328886D01*
X44933Y327887D02*
X46932D01*
X45932D01*
Y333885D01*
X44933Y332885D01*
X49893Y64362D02*
X47893D01*
X48893D01*
Y59364D01*
X47893Y58364D01*
X46893D01*
X45894Y59364D01*
X51892Y58364D02*
X53891D01*
X52891D01*
Y64362D01*
X51892Y63362D01*
X91001Y159196D02*
X93000D01*
X92001D01*
Y153198D01*
X91001D01*
X93000D01*
X99998Y158196D02*
X98998Y159196D01*
X96999D01*
X95999Y158196D01*
Y154197D01*
X96999Y153198D01*
X98998D01*
X99998Y154197D01*
X101997Y153198D02*
X103997D01*
X102997D01*
Y159196D01*
X101997Y158196D01*
X956Y96088D02*
Y90090D01*
Y93089D01*
X4955D01*
Y96088D01*
Y90090D01*
X6954Y96088D02*
Y90090D01*
X9953D01*
X10953Y91089D01*
Y95088D01*
X9953Y96088D01*
X6954D01*
X12952Y90090D02*
X14952D01*
X13952D01*
Y96088D01*
X12952Y95088D01*
D12*
X26286Y35981D02*
G03*
X26286Y35981I-640J0D01*
G01*
X15213Y32016D02*
G03*
X14564Y31359I-4606J3903D01*
G01*
X14963Y52292D02*
G03*
X14327Y51643I-4618J3889D01*
G01*
X26186Y76181D02*
G03*
X26186Y76181I-640J0D01*
G01*
X26486Y55821D02*
G03*
X26486Y55821I-640J0D01*
G01*
X14917Y72237D02*
G03*
X14374Y71684I-4571J3944D01*
G01*
X105772Y149821D02*
G03*
X115768Y149784I4997J-169D01*
G01*
X183382Y71905D02*
X183482Y72005D01*
X33339Y317587D02*
X66339D01*
X33339Y270087D02*
Y324587D01*
X66339Y270087D02*
Y324587D01*
X33339Y270087D02*
X66339D01*
X33339Y324587D02*
X66339D01*
X114923Y207383D02*
X134923D01*
X114923Y167283D02*
Y207383D01*
Y167283D02*
X124923D01*
X134923D01*
Y207383D01*
X125073Y177333D02*
X134873D01*
X2445Y46181D02*
X17545D01*
X6445Y40181D02*
X14845Y31681D01*
X345Y26181D02*
Y86181D01*
X6195Y60331D02*
X14645Y51881D01*
X2245Y66181D02*
X17345D01*
X25845Y86781D02*
X28345D01*
X15345Y86181D02*
X30345D01*
Y26181D02*
Y86181D01*
X28545Y26181D02*
X30345D01*
X28545D02*
Y27181D01*
X25445D02*
X28545D01*
X25445Y26181D02*
Y27181D01*
X345Y26181D02*
X25445D01*
X345Y86181D02*
X15345D01*
X20345Y26181D02*
Y86181D01*
X6145Y80381D02*
X14645Y71881D01*
X115768Y79783D02*
Y139784D01*
X105768Y79783D02*
X115768D01*
X105768D02*
Y139784D01*
X115768D01*
X90768Y149784D02*
X105768D01*
X115868D02*
X130768D01*
X90768Y69784D02*
Y149784D01*
Y69784D02*
X130768D01*
Y149683D01*
X130668Y149784D02*
X130768Y149683D01*
X109996Y266561D02*
Y270309D01*
X109246Y271059D01*
X107747D01*
X106997Y270309D01*
Y266561D01*
X105498Y267310D02*
X104748Y266561D01*
X103248D01*
X102498Y267310D01*
Y268060D01*
X103998Y269560D01*
Y270309D02*
Y271059D01*
D13*
X104268Y144684D02*
G03*
X104268Y144684I-800J0D01*
G01*
X6988Y258957D02*
X66043D01*
X6988Y89665D02*
Y258957D01*
Y89665D02*
X66043D01*
Y258957D01*
D14*
X143992Y161D02*
G03*
X141256Y-2575I0J-2736D01*
G01*
X138500Y-23441D02*
G03*
X141236Y-20705I0J2736D01*
G01*
X71453Y-2575D02*
G03*
X68717Y161I-2736J0D01*
G01*
X71473Y-20705D02*
G03*
X74209Y-23441I2736J0D01*
G01*
X74209Y-23441D02*
X138500D01*
X45724Y11992D02*
X166984D01*
X45724Y181D02*
Y55000D01*
X166984Y181D02*
Y55000D01*
X45724D02*
X166984D01*
X78795Y11992D02*
Y55000D01*
X45724Y181D02*
X166984D01*
X133914Y11992D02*
Y55000D01*
X141256Y-20685D02*
Y-2575D01*
X71453Y-20685D02*
Y-2575D01*
D15*
X110613Y301821D02*
X122424D01*
X116519Y306939D02*
X116520Y297094D01*
D16*
X113923Y158384D02*
Y215883D01*
X211823D01*
Y158384D02*
Y215883D01*
X113923Y158384D02*
X211823D01*
D17*
X179823Y126828D02*
X204458D01*
X179823Y105410D02*
Y133362D01*
Y111828D02*
X204458D01*
X154232Y105410D02*
X156595D01*
X166437D02*
X179823D01*
X204458Y111828D02*
Y126828D01*
X154232Y105410D02*
Y119386D01*
Y133362D02*
X156595D01*
X166437D02*
X179823D01*
X154232Y119386D02*
Y133362D01*
D18*
X130496Y304060D02*
X126497D01*
X87496D02*
X83497D01*
X87496Y269060D02*
X83497D01*
X85497Y267061D02*
Y271059D01*
X130496Y269060D02*
X126497D01*
X128497Y267061D02*
Y271059D01*
X135497Y286062D02*
X138163D01*
X139496Y287394D01*
Y292726D01*
X138163Y294059D01*
X135497D01*
X134165Y292726D01*
Y287394D01*
X135497Y286062D01*
X131499D02*
Y292726D01*
X130166Y294059D01*
X127500D01*
X126167Y292726D01*
Y286062D01*
X123501D02*
X118170D01*
X120835D01*
Y294059D01*
X85996Y285562D02*
X83330D01*
X84663D01*
Y293559D01*
X85996D01*
X83330D01*
X79332D02*
Y285562D01*
X74000Y293559D01*
Y285562D01*
X126496Y275060D02*
Y279059D01*
X124497D01*
X123830Y278393D01*
Y275727D01*
X124497Y275060D01*
X126496D01*
X119832Y275727D02*
X120498Y275060D01*
X121831D01*
X122497Y275727D01*
Y276393D01*
X121831Y277060D01*
X120498D01*
X119832Y277726D01*
Y278393D01*
X120498Y279059D01*
X121831D01*
X122497Y278393D01*
X118499Y279059D02*
Y275060D01*
X115833Y279059D01*
Y275060D01*
X114500Y277060D02*
X111834D01*
X110501Y279059D02*
Y275060D01*
X109168Y276393D01*
X107835Y275060D01*
Y279059D01*
X106502Y275060D02*
X105170D01*
X105836D01*
Y279059D01*
X106502D01*
X105170D01*
X103170D02*
Y275060D01*
X100504Y279059D01*
Y275060D01*
X99172D02*
X97839D01*
X98505D01*
Y279059D01*
X99172D01*
X97839D01*
X95839Y277060D02*
X93173D01*
X91841Y275727D02*
X91174Y275060D01*
X89841D01*
X89175Y275727D01*
Y276393D01*
X89841Y277060D01*
X90508D01*
X89841D01*
X89175Y277726D01*
Y278393D01*
X89841Y279059D01*
X91174D01*
X91841Y278393D01*
X85176Y275060D02*
X86509Y275727D01*
X87842Y277060D01*
Y278393D01*
X87175Y279059D01*
X85843D01*
X85176Y278393D01*
Y277726D01*
X85843Y277060D01*
X87842D01*
X83843Y275727D02*
X83177Y275060D01*
X81844D01*
X81177Y275727D01*
Y278393D01*
X81844Y279059D01*
X83177D01*
X83843Y278393D01*
Y275727D01*
D19*
X38484Y227461D02*
X46356D01*
Y223525D01*
X45044Y222213D01*
X42420D01*
X41108Y223525D01*
Y227461D01*
Y224837D02*
X38484Y222213D01*
X45044Y214341D02*
X46356Y215653D01*
Y218277D01*
X45044Y219589D01*
X43732D01*
X42420Y218277D01*
Y215653D01*
X41108Y214341D01*
X39796D01*
X38484Y215653D01*
Y218277D01*
X39796Y219589D01*
X38484Y207782D02*
X46356D01*
X42420Y211718D01*
Y206470D01*
X45044Y203846D02*
X46356Y202534D01*
Y199910D01*
X45044Y198599D01*
X43732D01*
X42420Y199910D01*
X41108Y198599D01*
X39796D01*
X38484Y199910D01*
Y202534D01*
X39796Y203846D01*
X41108D01*
X42420Y202534D01*
X43732Y203846D01*
X45044D01*
X42420Y202534D02*
Y199910D01*
X46356Y190727D02*
Y195975D01*
X42420D01*
X43732Y193351D01*
Y192039D01*
X42420Y190727D01*
X39796D01*
X38484Y192039D01*
Y194663D01*
X39796Y195975D01*
X38484Y180232D02*
X43732D01*
X46356Y177608D01*
X43732Y174984D01*
X38484D01*
X42420D01*
Y180232D01*
X46356Y172360D02*
X38484D01*
Y168424D01*
X39796Y167113D01*
X45044D01*
X46356Y168424D01*
Y172360D01*
Y164489D02*
X41108D01*
X38484Y161865D01*
X41108Y159241D01*
X46356D01*
X42420Y156617D02*
Y151370D01*
X46356Y148746D02*
Y143498D01*
Y146122D01*
X38484D01*
X46356Y140874D02*
Y135627D01*
Y138251D01*
X38484D01*
X46356Y133003D02*
X38484D01*
Y127755D01*
D20*
X84484Y40711D02*
X84109Y40524D01*
X83547Y39961D01*
Y43898D01*
X121848Y31057D02*
X122035Y31619D01*
X122410Y31994D01*
X122972Y32182D01*
X123160D01*
X123722Y31994D01*
X124097Y31619D01*
X124284Y31057D01*
Y30870D01*
X124097Y30307D01*
X123722Y29932D01*
X123160Y29745D01*
X122972D01*
X122410Y29932D01*
X122035Y30307D01*
X121848Y31057D01*
Y31994D01*
X122035Y32931D01*
X122410Y33494D01*
X122972Y33681D01*
X123347D01*
X123909Y33494D01*
X124097Y33119D01*
M02*
