G04*
G04 #@! TF.GenerationSoftware,Altium Limited,Altium Designer,18.1.6 (161)*
G04*
G04 Layer_Physical_Order=1*
G04 Layer_Color=255*
%FSLAX25Y25*%
%MOIN*%
G70*
G01*
G75*
%ADD35C,0.06653*%
%ADD39C,0.02500*%
%ADD40C,0.13780*%
%ADD41C,0.07500*%
%ADD42R,0.08000X0.06000*%
%ADD43O,0.10000X0.16000*%
%ADD44O,0.16000X0.10000*%
%ADD45O,0.08600X0.06000*%
%ADD46O,0.08500X0.18000*%
%ADD47O,0.06000X0.09000*%
%ADD48R,0.06000X0.09000*%
%ADD49C,0.11000*%
%ADD50R,0.09000X0.06000*%
%ADD51O,0.09000X0.06000*%
%ADD52R,0.06653X0.06653*%
%ADD53C,0.18740*%
%ADD54C,0.08000*%
%ADD55C,0.05906*%
D35*
X122713Y37992D02*
D03*
X95449Y49173D02*
D03*
X100902Y37992D02*
D03*
X117260Y49173D02*
D03*
X89996Y37992D02*
D03*
X106354Y49173D02*
D03*
X111807Y37992D02*
D03*
X128165Y49173D02*
D03*
D39*
X139201Y196358D02*
X139496D01*
Y196063D02*
X163484D01*
X125847Y152461D02*
X145097D01*
X100766Y191831D02*
Y221457D01*
Y217344D02*
Y221457D01*
Y217344D02*
X100787Y217323D01*
X145097Y152461D02*
X145393Y152165D01*
X144095D02*
X145393D01*
D40*
X15945Y12894D02*
D03*
X199114D02*
D03*
Y300886D02*
D03*
X15945D02*
D03*
D41*
X158182Y73805D02*
D03*
X185282Y92606D02*
D03*
Y73805D02*
D03*
X158182Y92606D02*
D03*
X171358Y128244D02*
D03*
Y110528D02*
D03*
D42*
X76496Y304059D02*
D03*
X136496D02*
D03*
X76496Y269059D02*
D03*
X136496D02*
D03*
D43*
X31339Y279587D02*
D03*
D44*
X51339Y294587D02*
D03*
Y269587D02*
D03*
D45*
X129823Y172383D02*
D03*
Y182283D02*
D03*
Y192183D02*
D03*
Y202284D02*
D03*
X119823Y202383D02*
D03*
Y192333D02*
D03*
Y182384D02*
D03*
Y172383D02*
D03*
D46*
X16043Y97539D02*
D03*
X36516D02*
D03*
X57043D02*
D03*
D47*
X20748Y254920D02*
D03*
X30748D02*
D03*
X40748Y255020D02*
D03*
D48*
X50295D02*
D03*
D49*
X10607Y35919D02*
D03*
X10345Y76181D02*
D03*
Y56181D02*
D03*
D50*
X95768Y144783D02*
D03*
D51*
Y134783D02*
D03*
Y124784D02*
D03*
Y114784D02*
D03*
Y104783D02*
D03*
Y94784D02*
D03*
Y84784D02*
D03*
Y74783D02*
D03*
X125768Y144783D02*
D03*
Y134783D02*
D03*
Y124784D02*
D03*
Y114784D02*
D03*
Y104783D02*
D03*
Y94784D02*
D03*
Y84784D02*
D03*
Y74783D02*
D03*
D52*
X84543Y49173D02*
D03*
D53*
X57161Y43583D02*
D03*
X155547D02*
D03*
D54*
X161516Y105607D02*
D03*
Y133166D02*
D03*
D55*
X163484Y196063D02*
D03*
X100766Y221457D02*
D03*
X144095Y152165D02*
D03*
X125847Y152461D02*
D03*
X100766Y191831D02*
D03*
X139201Y196358D02*
D03*
M02*
