G04*
G04 #@! TF.GenerationSoftware,Altium Limited,Altium Designer,18.1.6 (161)*
G04*
G04 Layer_Physical_Order=2*
G04 Layer_Color=16711680*
%FSLAX25Y25*%
%MOIN*%
G70*
G01*
G75*
%ADD13C,0.01500*%
%ADD35C,0.06653*%
%ADD39C,0.02500*%
%ADD40C,0.13780*%
%ADD41C,0.07500*%
%ADD42R,0.08000X0.06000*%
%ADD43O,0.10000X0.16000*%
%ADD44O,0.16000X0.10000*%
%ADD45O,0.08600X0.06000*%
%ADD46O,0.08500X0.18000*%
%ADD47O,0.06000X0.09000*%
%ADD48R,0.06000X0.09000*%
%ADD49C,0.11000*%
%ADD50R,0.09000X0.06000*%
%ADD51O,0.09000X0.06000*%
%ADD52R,0.06653X0.06653*%
%ADD53C,0.18740*%
%ADD54C,0.08000*%
%ADD55C,0.05906*%
%ADD56R,0.05500X0.05000*%
%ADD57R,0.05512X0.05512*%
%ADD58R,0.12992X0.09449*%
%ADD59R,0.03937X0.09449*%
%ADD60C,0.03500*%
G36*
X205614Y314675D02*
X207434Y313921D01*
X209071Y312827D01*
X210464Y311434D01*
X211559Y309796D01*
X212313Y307976D01*
X212697Y306044D01*
Y305059D01*
Y233720D01*
Y232736D01*
X212313Y230804D01*
X211559Y228984D01*
X210464Y227346D01*
X209071Y225953D01*
X207434Y224859D01*
X205614Y224105D01*
X203682Y223721D01*
X173779D01*
X172799Y223672D01*
X170877Y223290D01*
X169066Y222540D01*
X167436Y221451D01*
X166049Y220064D01*
X164960Y218434D01*
X164210Y216623D01*
X163828Y214701D01*
X163779Y213720D01*
Y200813D01*
X163484Y200554D01*
X162322Y200401D01*
X161239Y199952D01*
X160309Y199239D01*
X159595Y198309D01*
X159146Y197225D01*
X158993Y196063D01*
X159146Y194901D01*
X159595Y193817D01*
X160309Y192887D01*
X160514Y192730D01*
Y153543D01*
X160608Y152825D01*
X160885Y152156D01*
X161326Y151582D01*
X176459Y136450D01*
Y132686D01*
X175560Y132133D01*
X174459Y131853D01*
X173754Y132394D01*
X172598Y132872D01*
X171858Y132970D01*
Y128244D01*
X170858D01*
Y132970D01*
X170118Y132872D01*
X168963Y132394D01*
X167818Y132859D01*
X167028Y133430D01*
X166874Y134601D01*
X166320Y135939D01*
X165438Y137088D01*
X164289Y137970D01*
X162952Y138524D01*
X161516Y138713D01*
X160080Y138524D01*
X158742Y137970D01*
X157593Y137088D01*
X156711Y135939D01*
X156157Y134601D01*
X155968Y133166D01*
X156157Y131730D01*
X156711Y130392D01*
X157097Y129890D01*
X156242Y127891D01*
X156241Y127890D01*
X153761D01*
X152774Y128877D01*
Y155709D01*
Y222342D01*
X152679Y223060D01*
X152402Y223729D01*
X151961Y224304D01*
X139270Y236995D01*
Y259205D01*
Y264559D01*
X141996D01*
Y273559D01*
X130996D01*
Y273559D01*
X128996Y273155D01*
X127567Y274584D01*
Y276964D01*
X129043D01*
Y283964D01*
X129043Y285776D01*
X130341Y287074D01*
X132241Y286707D01*
X132683Y285121D01*
X132683Y284914D01*
Y282414D01*
X136433D01*
X140183D01*
X140183Y285121D01*
X140683Y286914D01*
X140683Y287207D01*
Y294914D01*
X132183D01*
Y292738D01*
X129043D01*
Y293964D01*
X120543D01*
Y286964D01*
X120543Y285464D01*
X120543Y283964D01*
Y276964D01*
X122019D01*
Y273435D01*
X122114Y272717D01*
X122391Y272048D01*
X122832Y271474D01*
X127208Y267098D01*
X127782Y266657D01*
X128451Y266380D01*
X129169Y266285D01*
X130996D01*
Y264559D01*
X133722D01*
Y260354D01*
X130491Y257122D01*
X126163D01*
X126163Y257122D01*
X125417Y257405D01*
Y257405D01*
X124281Y257405D01*
X116905D01*
Y255923D01*
X113137D01*
Y259374D01*
X106200D01*
Y250408D01*
X106082Y250329D01*
X104082Y251398D01*
Y259374D01*
X103387D01*
Y276964D01*
X104863D01*
Y283964D01*
X104863Y285776D01*
X106161Y287074D01*
X108061Y286707D01*
X108503Y285121D01*
X108503Y284914D01*
Y282414D01*
X112253D01*
X116003D01*
X116003Y285121D01*
X116503Y286914D01*
X116503Y287207D01*
Y294914D01*
X108003D01*
Y292738D01*
X104863D01*
Y293964D01*
X96363D01*
Y286964D01*
X96363Y285464D01*
X96363Y283964D01*
Y276964D01*
X97839D01*
Y259374D01*
X97145D01*
Y249799D01*
X96526Y249378D01*
X94526Y250436D01*
Y252650D01*
X91558D01*
X88590D01*
Y247425D01*
X91525D01*
X92581Y245425D01*
X92155Y244801D01*
X84965D01*
Y245595D01*
X76453D01*
X76297Y247530D01*
Y247665D01*
X76566Y248375D01*
X77782Y249394D01*
X80209D01*
Y253150D01*
Y256906D01*
X77691D01*
X76953Y256906D01*
X75059Y256650D01*
X72547D01*
Y253150D01*
X72047D01*
Y252650D01*
X68297D01*
X68297Y249942D01*
X67797Y248150D01*
X67797Y247857D01*
Y242497D01*
X65797Y241669D01*
X54795Y252671D01*
Y260373D01*
X56235Y262373D01*
X79370Y262373D01*
X80216Y262373D01*
X80217Y262373D01*
X80529Y262435D01*
X80793Y262612D01*
X80970Y262877D01*
X80990Y262976D01*
X81996Y264559D01*
X81996Y264559D01*
X81996D01*
Y273559D01*
X81032D01*
X81032Y281890D01*
X81032Y281890D01*
X80970Y282202D01*
X80793Y282467D01*
X80683Y282577D01*
X80683Y285776D01*
X81981Y287074D01*
X83881Y286707D01*
X84323Y285121D01*
X84323Y284914D01*
Y282414D01*
X88073D01*
X91823D01*
X91823Y285121D01*
X92323Y286914D01*
X92323Y287207D01*
Y294914D01*
X83823D01*
Y292738D01*
X80683D01*
Y293964D01*
X72183D01*
Y286964D01*
X72183Y285964D01*
X72133Y283985D01*
X51083Y283985D01*
X50770Y283923D01*
X50506Y283746D01*
X50506Y283746D01*
X39778Y273018D01*
X39601Y272753D01*
X39539Y272441D01*
X39539Y272441D01*
Y263189D01*
X39592Y262924D01*
X39601Y262857D01*
X39593Y262358D01*
X39369Y261384D01*
X39151Y260729D01*
X38479Y260450D01*
X37539Y259729D01*
X36817Y258789D01*
X36810Y258771D01*
X34679Y258689D01*
X33957Y259629D01*
X33017Y260350D01*
X31923Y260804D01*
X30748Y260959D01*
X29573Y260804D01*
X28479Y260350D01*
X27539Y259629D01*
X26817Y258689D01*
X26506Y257937D01*
X26346Y257896D01*
X25177Y257819D01*
X24440Y257958D01*
X24242Y258437D01*
X23601Y259273D01*
X22765Y259914D01*
X21792Y260317D01*
X21248Y260388D01*
Y254920D01*
Y249451D01*
X21792Y249523D01*
X22765Y249926D01*
X23601Y250567D01*
X24242Y251402D01*
X24440Y251881D01*
X25177Y252020D01*
X26346Y251943D01*
X26506Y251903D01*
X26817Y251150D01*
X27539Y250210D01*
X27974Y249876D01*
Y242382D01*
X28069Y241664D01*
X28346Y240995D01*
X28787Y240421D01*
X68785Y200422D01*
X69360Y199981D01*
X70029Y199704D01*
X70746Y199610D01*
X91696D01*
X92202Y198388D01*
X92337Y197610D01*
X91988Y197155D01*
X91711Y196486D01*
X91616Y195768D01*
Y164567D01*
X91711Y163849D01*
X91988Y163180D01*
X92428Y162606D01*
X98728Y156306D01*
X99302Y155866D01*
X99971Y155588D01*
X100689Y155494D01*
X120132D01*
X121480Y153662D01*
X121491Y153494D01*
X121355Y152461D01*
X121508Y151298D01*
X121957Y150215D01*
X121125Y148044D01*
X121058Y147993D01*
X120337Y147053D01*
X119884Y145958D01*
X119729Y144783D01*
X119884Y143609D01*
X120337Y142514D01*
X121058Y141574D01*
X121998Y140853D01*
X122751Y140541D01*
X122791Y140381D01*
X122869Y139212D01*
X122729Y138476D01*
X122250Y138277D01*
X121415Y137636D01*
X120774Y136801D01*
X120371Y135828D01*
X120299Y135284D01*
X125768D01*
Y134283D01*
X120299D01*
X120371Y133739D01*
X120774Y132766D01*
X121415Y131931D01*
X122250Y131290D01*
X122729Y131091D01*
X122869Y130354D01*
X122791Y129186D01*
X122751Y129026D01*
X121998Y128714D01*
X121058Y127993D01*
X120337Y127053D01*
X119884Y125958D01*
X119729Y124784D01*
X119884Y123609D01*
X120114Y123052D01*
X104928Y107867D01*
X104488Y107292D01*
X104210Y106623D01*
X104116Y105905D01*
Y61763D01*
X96285Y53931D01*
X95449Y54042D01*
X94189Y53876D01*
X93015Y53389D01*
X92006Y52616D01*
X91370Y51786D01*
X90769Y51789D01*
X89370Y52337D01*
Y54000D01*
X79717D01*
Y44346D01*
X84543D01*
Y32480D01*
X128404D01*
X128284Y44825D01*
X129295Y44958D01*
X130347Y45394D01*
X131251Y46087D01*
X131945Y46991D01*
X132381Y48044D01*
X132464Y48673D01*
X128246D01*
X128245Y48819D01*
X128165D01*
Y49173D01*
X127665D01*
Y53471D01*
X127036Y53389D01*
X125983Y52953D01*
X125079Y52259D01*
X124386Y51355D01*
X123950Y50303D01*
X121962Y50433D01*
X121476Y51607D01*
X120702Y52616D01*
X119694Y53389D01*
X118520Y53876D01*
X117582Y53999D01*
X116783Y54892D01*
X116208Y55920D01*
X116258Y56303D01*
Y101351D01*
X118030Y103123D01*
X118044Y103127D01*
X120311Y102576D01*
X120337Y102514D01*
X121058Y101574D01*
X121998Y100853D01*
Y98714D01*
X121058Y97993D01*
X120337Y97053D01*
X119884Y95958D01*
X119729Y94784D01*
X119884Y93609D01*
X120337Y92514D01*
X121058Y91574D01*
X121998Y90853D01*
Y88714D01*
X121058Y87993D01*
X120337Y87053D01*
X119884Y85958D01*
X119729Y84784D01*
X119884Y83609D01*
X120337Y82514D01*
X121058Y81574D01*
X121998Y80853D01*
Y78714D01*
X121058Y77993D01*
X120337Y77053D01*
X119884Y75958D01*
X119729Y74783D01*
X119884Y73609D01*
X120337Y72514D01*
X121058Y71574D01*
X121998Y70853D01*
X123093Y70399D01*
X124268Y70245D01*
X127268D01*
X128443Y70399D01*
X129537Y70853D01*
X130477Y71574D01*
X131199Y72514D01*
X131652Y73609D01*
X131807Y74783D01*
X131652Y75958D01*
X131199Y77053D01*
X130477Y77993D01*
X129537Y78714D01*
Y80853D01*
X130477Y81574D01*
X131199Y82514D01*
X131652Y83609D01*
X131807Y84784D01*
X131652Y85958D01*
X131199Y87053D01*
X130477Y87993D01*
X129678Y88606D01*
X129610Y90608D01*
X131058Y92010D01*
X131693D01*
X132411Y92104D01*
X133080Y92381D01*
X133654Y92822D01*
X140249Y99417D01*
X140690Y99991D01*
X140967Y100660D01*
X141061Y101378D01*
Y146450D01*
X142893Y147799D01*
X143061Y147810D01*
X144095Y147674D01*
X145226Y147823D01*
X145258Y147827D01*
X147226Y146549D01*
Y127728D01*
X147321Y127010D01*
X147598Y126341D01*
X148039Y125767D01*
X149589Y124217D01*
Y120890D01*
X149589Y119390D01*
X149589Y117890D01*
Y110890D01*
X156245D01*
X156261Y110874D01*
X157102Y108890D01*
X156711Y108380D01*
X156157Y107042D01*
X155968Y105607D01*
X156157Y104171D01*
X156711Y102833D01*
X157593Y101684D01*
X158742Y100802D01*
X160080Y100248D01*
X161516Y100059D01*
X162952Y100248D01*
X164289Y100802D01*
X165438Y101684D01*
X166320Y102833D01*
X166874Y104171D01*
X166953Y104770D01*
X168034Y105491D01*
X168710Y105777D01*
X169030Y105809D01*
X169988Y105413D01*
X171358Y105233D01*
X172729Y105413D01*
X174006Y105942D01*
X174459Y106289D01*
X176452Y105439D01*
X176459Y105433D01*
Y98655D01*
X176553Y97938D01*
X176830Y97269D01*
X175853Y95379D01*
X162671D01*
X161927Y96350D01*
X160830Y97191D01*
X159553Y97720D01*
X158182Y97901D01*
X156812Y97720D01*
X155535Y97191D01*
X154438Y96350D01*
X153596Y95253D01*
X153067Y93976D01*
X152887Y92606D01*
X153067Y91235D01*
X153596Y89958D01*
X154438Y88861D01*
X155535Y88020D01*
X156812Y87491D01*
X158182Y87310D01*
X159553Y87491D01*
X160830Y88020D01*
X161927Y88861D01*
X162671Y89832D01*
X180793D01*
X181538Y88861D01*
X182635Y88020D01*
X183912Y87491D01*
X185282Y87310D01*
X186653Y87491D01*
X187930Y88020D01*
X189027Y88861D01*
X189868Y89958D01*
X190397Y91235D01*
X190578Y92606D01*
X190397Y93976D01*
X189868Y95253D01*
X189027Y96350D01*
X187930Y97191D01*
X186653Y97720D01*
X185282Y97901D01*
X184069Y97741D01*
X182006Y99804D01*
Y118402D01*
Y137598D01*
X181912Y138316D01*
X181634Y138985D01*
X181194Y139560D01*
X171502Y149251D01*
X172487Y151094D01*
X172799Y151032D01*
X173779Y150984D01*
X203682D01*
X205614Y150600D01*
X207434Y149846D01*
X209071Y148752D01*
X210464Y147359D01*
X211559Y145721D01*
X212313Y143901D01*
X212697Y141969D01*
Y140984D01*
Y10197D01*
Y9212D01*
X212313Y7280D01*
X211559Y5460D01*
X210464Y3822D01*
X209071Y2429D01*
X207434Y1335D01*
X205614Y581D01*
X203682Y197D01*
X9310D01*
X7378Y581D01*
X5559Y1335D01*
X3921Y2429D01*
X2528Y3822D01*
X1433Y5460D01*
X680Y7280D01*
X295Y9212D01*
Y10197D01*
Y305059D01*
Y306044D01*
X680Y307976D01*
X1433Y309796D01*
X2528Y311434D01*
X3921Y312827D01*
X5559Y313921D01*
X7378Y314675D01*
X9310Y315059D01*
X203682D01*
X205614Y314675D01*
D02*
G37*
G36*
X80216Y281890D02*
X80216Y263189D01*
X40354Y263189D01*
Y272441D01*
X51083Y283169D01*
X78937Y283169D01*
X80216Y281890D01*
D02*
G37*
G36*
X116905Y248894D02*
X125177D01*
X126514Y247442D01*
X126227Y245554D01*
X124917Y245094D01*
X124663Y245094D01*
X121661D01*
Y241339D01*
Y237583D01*
X124917D01*
Y240009D01*
X126663Y240622D01*
X126917Y240622D01*
X129913D01*
Y244122D01*
X130913D01*
Y240622D01*
X133722D01*
Y235846D01*
X133817Y235129D01*
X134094Y234460D01*
X134535Y233885D01*
X147226Y221194D01*
Y212262D01*
X145378Y211497D01*
X142709Y214166D01*
X142135Y214607D01*
X141466Y214884D01*
X140748Y214979D01*
X75362D01*
X43754Y246586D01*
X43972Y248626D01*
X45795Y249020D01*
Y249020D01*
X50601D01*
X67527Y232094D01*
X68101Y231653D01*
X68770Y231376D01*
X69488Y231281D01*
X85532D01*
X86249Y231376D01*
X86918Y231653D01*
X87493Y232094D01*
X90617Y235218D01*
X92617Y234800D01*
Y224091D01*
X94873D01*
X95510Y223487D01*
X96358Y222091D01*
X96275Y221457D01*
X96428Y220294D01*
X96877Y219211D01*
X97590Y218281D01*
X98521Y217567D01*
X99604Y217119D01*
X100766Y216966D01*
X101928Y217119D01*
X103012Y217567D01*
X103942Y218281D01*
X104656Y219211D01*
X105104Y220294D01*
X105257Y221457D01*
X105174Y222091D01*
X106022Y223487D01*
X106660Y224091D01*
X108609D01*
Y236539D01*
X104788D01*
X104022Y238387D01*
X111629Y245994D01*
X112070Y246569D01*
X112218Y246925D01*
X113137D01*
Y250376D01*
X116905D01*
Y248894D01*
D02*
G37*
G36*
X37974Y249749D02*
Y245669D01*
X38069Y244951D01*
X38346Y244282D01*
X38787Y243708D01*
X72251Y210243D01*
X72826Y209803D01*
X73495Y209525D01*
X74213Y209431D01*
X139599D01*
X143041Y205990D01*
Y201546D01*
X142323Y200962D01*
X141040Y200416D01*
X140363Y200696D01*
X139201Y200849D01*
X138038Y200696D01*
X136955Y200248D01*
X136690Y200044D01*
X135130Y201161D01*
X135026Y201289D01*
X135092Y201783D01*
X129823D01*
Y202284D01*
X129323D01*
Y206318D01*
X128523D01*
X127479Y206181D01*
X126506Y205778D01*
X124332Y205593D01*
X123392Y206314D01*
X122298Y206768D01*
X121123Y206922D01*
X118523D01*
X117348Y206768D01*
X116253Y206314D01*
X115313Y205593D01*
X114979Y205157D01*
X71895D01*
X33522Y243531D01*
Y249876D01*
X33957Y250210D01*
X34586Y251029D01*
X36590Y251144D01*
X37974Y249749D01*
D02*
G37*
G36*
X113400Y191627D02*
X114139Y191159D01*
X114592Y190064D01*
X115313Y189124D01*
X116189Y188452D01*
X116253Y188045D01*
Y186672D01*
X116189Y186265D01*
X115313Y185593D01*
X114592Y184653D01*
X114139Y183558D01*
X113984Y182384D01*
X114124Y181322D01*
X113852Y180955D01*
X113730Y180847D01*
X111730Y181748D01*
Y183134D01*
Y191134D01*
X111730D01*
Y191360D01*
X112036Y191811D01*
X113400Y191627D01*
D02*
G37*
G36*
X126253Y168453D02*
X127049Y168123D01*
Y164173D01*
X127144Y163455D01*
X127315Y163041D01*
X126956Y162101D01*
X126239Y161041D01*
X119367D01*
X118539Y163041D01*
X121784Y166287D01*
X122225Y166861D01*
X122502Y167530D01*
X122579Y168116D01*
X123392Y168453D01*
X124823Y168990D01*
X126253Y168453D01*
D02*
G37*
G36*
X145985Y170240D02*
X147226Y169726D01*
Y157782D01*
X145397Y156446D01*
X145257Y156503D01*
X144095Y156657D01*
X142973Y156509D01*
X142883Y156502D01*
X141449Y156446D01*
X140404Y157467D01*
X140249Y157670D01*
X132597Y165322D01*
Y168123D01*
X133392Y168453D01*
X134332Y169174D01*
X134667Y169610D01*
X143348D01*
X144066Y169704D01*
X144735Y169981D01*
X145226Y170358D01*
X145985Y170240D01*
D02*
G37*
%LPC*%
G36*
X81496Y308059D02*
X76996D01*
Y304559D01*
X81496D01*
Y308059D01*
D02*
G37*
G36*
X141496D02*
X136996D01*
Y304559D01*
X141496D01*
Y308059D01*
D02*
G37*
G36*
X75996D02*
X71496D01*
Y304559D01*
X75996D01*
Y308059D01*
D02*
G37*
G36*
X135996D02*
X131496D01*
Y304559D01*
X135996D01*
Y308059D01*
D02*
G37*
G36*
X199614Y308765D02*
Y301386D01*
X206993D01*
X206890Y302432D01*
X206439Y303920D01*
X205706Y305290D01*
X204720Y306492D01*
X203519Y307478D01*
X202148Y308210D01*
X200661Y308661D01*
X199614Y308765D01*
D02*
G37*
G36*
X16445D02*
Y301386D01*
X23824D01*
X23720Y302432D01*
X23269Y303920D01*
X22537Y305290D01*
X21551Y306492D01*
X20349Y307478D01*
X18979Y308210D01*
X17492Y308661D01*
X16445Y308765D01*
D02*
G37*
G36*
X198614D02*
X197567Y308661D01*
X196080Y308210D01*
X194710Y307478D01*
X193508Y306492D01*
X192522Y305290D01*
X191790Y303920D01*
X191339Y302432D01*
X191235Y301386D01*
X198614D01*
Y308765D01*
D02*
G37*
G36*
X15445D02*
X14398Y308661D01*
X12911Y308210D01*
X11540Y307478D01*
X10339Y306492D01*
X9353Y305290D01*
X8620Y303920D01*
X8169Y302432D01*
X8066Y301386D01*
X15445D01*
Y308765D01*
D02*
G37*
G36*
X141496Y303559D02*
X136996D01*
Y300059D01*
X141496D01*
Y303559D01*
D02*
G37*
G36*
X135996D02*
X131496D01*
Y300059D01*
X135996D01*
Y303559D01*
D02*
G37*
G36*
X81496D02*
X76996D01*
Y300059D01*
X81496D01*
Y303559D01*
D02*
G37*
G36*
X75996D02*
X71496D01*
Y300059D01*
X75996D01*
Y303559D01*
D02*
G37*
G36*
X54339Y300616D02*
X51839D01*
Y295087D01*
X60318D01*
X60252Y295763D01*
X59909Y296894D01*
X59351Y297936D01*
X58602Y298850D01*
X57688Y299600D01*
X56646Y300157D01*
X55515Y300500D01*
X54339Y300616D01*
D02*
G37*
G36*
X50839D02*
X48339D01*
X47162Y300500D01*
X46031Y300157D01*
X44989Y299600D01*
X44075Y298850D01*
X43326Y297936D01*
X42768Y296894D01*
X42425Y295763D01*
X42359Y295087D01*
X50839D01*
Y300616D01*
D02*
G37*
G36*
X206993Y300386D02*
X199614D01*
Y293007D01*
X200661Y293110D01*
X202148Y293561D01*
X203519Y294294D01*
X204720Y295280D01*
X205706Y296481D01*
X206439Y297852D01*
X206890Y299339D01*
X206993Y300386D01*
D02*
G37*
G36*
X23824D02*
X16445D01*
Y293007D01*
X17492Y293110D01*
X18979Y293561D01*
X20349Y294294D01*
X21551Y295280D01*
X22537Y296481D01*
X23269Y297852D01*
X23720Y299339D01*
X23824Y300386D01*
D02*
G37*
G36*
X198614D02*
X191235D01*
X191339Y299339D01*
X191790Y297852D01*
X192522Y296481D01*
X193508Y295280D01*
X194710Y294294D01*
X196080Y293561D01*
X197567Y293110D01*
X198614Y293007D01*
Y300386D01*
D02*
G37*
G36*
X15445D02*
X8066D01*
X8169Y299339D01*
X8620Y297852D01*
X9353Y296481D01*
X10339Y295280D01*
X11540Y294294D01*
X12911Y293561D01*
X14398Y293110D01*
X15445Y293007D01*
Y300386D01*
D02*
G37*
G36*
X60318Y294087D02*
X51839D01*
Y288558D01*
X54339D01*
X55515Y288673D01*
X56646Y289017D01*
X57688Y289574D01*
X58602Y290323D01*
X59351Y291237D01*
X59909Y292279D01*
X60252Y293410D01*
X60318Y294087D01*
D02*
G37*
G36*
X50839D02*
X42359D01*
X42425Y293410D01*
X42768Y292279D01*
X43326Y291237D01*
X44075Y290323D01*
X44989Y289574D01*
X46031Y289017D01*
X47162Y288673D01*
X48339Y288558D01*
X50839D01*
Y294087D01*
D02*
G37*
G36*
X31839Y288566D02*
Y280087D01*
X37368D01*
Y282587D01*
X37252Y283763D01*
X36909Y284894D01*
X36351Y285936D01*
X35602Y286850D01*
X34688Y287600D01*
X33646Y288157D01*
X32515Y288500D01*
X31839Y288566D01*
D02*
G37*
G36*
X30839D02*
X30162Y288500D01*
X29031Y288157D01*
X27989Y287600D01*
X27075Y286850D01*
X26326Y285936D01*
X25769Y284894D01*
X25425Y283763D01*
X25310Y282587D01*
Y280087D01*
X30839D01*
Y288566D01*
D02*
G37*
G36*
X140183Y281414D02*
X136933D01*
Y278414D01*
X140183D01*
Y281414D01*
D02*
G37*
G36*
X135933D02*
X132683D01*
Y278414D01*
X135933D01*
Y281414D01*
D02*
G37*
G36*
X116003D02*
X112753D01*
Y278414D01*
X116003D01*
Y281414D01*
D02*
G37*
G36*
X111753D02*
X108503D01*
Y278414D01*
X111753D01*
Y281414D01*
D02*
G37*
G36*
X91823D02*
X88573D01*
Y278414D01*
X91823D01*
Y281414D01*
D02*
G37*
G36*
X87573D02*
X84323D01*
Y278414D01*
X87573D01*
Y281414D01*
D02*
G37*
G36*
X37368Y279087D02*
X31839D01*
Y270607D01*
X32515Y270673D01*
X33646Y271017D01*
X34688Y271574D01*
X35602Y272323D01*
X36351Y273237D01*
X36909Y274279D01*
X37252Y275410D01*
X37368Y276587D01*
Y279087D01*
D02*
G37*
G36*
X30839D02*
X25310D01*
Y276587D01*
X25425Y275410D01*
X25769Y274279D01*
X26326Y273237D01*
X27075Y272323D01*
X27989Y271574D01*
X29031Y271017D01*
X30162Y270673D01*
X30839Y270607D01*
Y279087D01*
D02*
G37*
G36*
X20248Y260388D02*
X19704Y260317D01*
X18731Y259914D01*
X17895Y259273D01*
X17254Y258437D01*
X16851Y257464D01*
X16714Y256420D01*
Y255420D01*
X20248D01*
Y260388D01*
D02*
G37*
G36*
X94526Y258874D02*
X92058D01*
Y253650D01*
X94526D01*
Y258874D01*
D02*
G37*
G36*
X71547Y256650D02*
X68297D01*
Y253650D01*
X71547D01*
Y256650D01*
D02*
G37*
G36*
X91058Y258874D02*
X88590D01*
Y253650D01*
X91058D01*
Y258874D01*
D02*
G37*
G36*
X81209Y256906D02*
Y253650D01*
X84465D01*
Y256906D01*
X81209D01*
D02*
G37*
G36*
X20248Y254420D02*
X16714D01*
Y253420D01*
X16851Y252376D01*
X17254Y251402D01*
X17895Y250567D01*
X18731Y249926D01*
X19704Y249523D01*
X20248Y249451D01*
Y254420D01*
D02*
G37*
G36*
X84465Y252650D02*
X81209D01*
Y249394D01*
X84465D01*
Y252650D01*
D02*
G37*
G36*
X150886Y309551D02*
Y230709D01*
X186909Y230709D01*
X186909Y309544D01*
X150886Y309551D01*
D02*
G37*
G36*
X101768Y149284D02*
X89768D01*
Y147557D01*
X87205D01*
X86487Y147463D01*
X85818Y147186D01*
X85243Y146745D01*
X82173Y143674D01*
X81732Y143099D01*
X81455Y142430D01*
X81360Y141713D01*
Y137784D01*
X79884D01*
Y130783D01*
X79884Y129283D01*
X79884Y127784D01*
Y120783D01*
X88384D01*
Y122010D01*
X90724D01*
X91058Y121574D01*
X91858Y120961D01*
X91926Y118959D01*
X90478Y117557D01*
X88384D01*
Y118783D01*
X79884D01*
Y111784D01*
X79884Y110284D01*
X79884Y108783D01*
Y101784D01*
X88384D01*
Y101784D01*
X88678Y102041D01*
X88917Y102010D01*
X90724D01*
X91058Y101574D01*
X91858Y100961D01*
X91926Y98959D01*
X90478Y97557D01*
X88384D01*
Y98783D01*
X79884D01*
Y91076D01*
X79884Y90784D01*
X80384Y88991D01*
X80384Y88784D01*
Y86283D01*
X84134D01*
Y85783D01*
X84634D01*
Y82284D01*
X87884D01*
Y83475D01*
X89884Y83609D01*
X90337Y82514D01*
X91058Y81574D01*
X91998Y80853D01*
Y78714D01*
X91058Y77993D01*
X90337Y77053D01*
X89884Y75958D01*
X89729Y74783D01*
X89884Y73609D01*
X90337Y72514D01*
X91058Y71574D01*
X91998Y70853D01*
X93093Y70399D01*
X94268Y70245D01*
X97268D01*
X98443Y70399D01*
X99537Y70853D01*
X100477Y71574D01*
X101198Y72514D01*
X101652Y73609D01*
X101807Y74783D01*
X101652Y75958D01*
X101198Y77053D01*
X100477Y77993D01*
X99537Y78714D01*
Y80853D01*
X100477Y81574D01*
X101198Y82514D01*
X101652Y83609D01*
X101807Y84784D01*
X101652Y85958D01*
X101198Y87053D01*
X100477Y87993D01*
X99537Y88714D01*
Y90853D01*
X100477Y91574D01*
X101198Y92514D01*
X101652Y93609D01*
X101807Y94784D01*
X101652Y95958D01*
X101198Y97053D01*
X100477Y97993D01*
X99537Y98714D01*
Y100853D01*
X100477Y101574D01*
X101198Y102514D01*
X101652Y103609D01*
X101807Y104783D01*
X101652Y105958D01*
X101198Y107053D01*
X100477Y107993D01*
X99537Y108714D01*
Y110853D01*
X100477Y111574D01*
X101198Y112514D01*
X101652Y113609D01*
X101807Y114784D01*
X101652Y115958D01*
X101198Y117053D01*
X100477Y117993D01*
X99537Y118714D01*
Y120853D01*
X100477Y121574D01*
X101198Y122514D01*
X101652Y123609D01*
X101807Y124784D01*
X101652Y125958D01*
X101198Y127053D01*
X100477Y127993D01*
X99537Y128714D01*
Y130853D01*
X100477Y131574D01*
X101198Y132514D01*
X101652Y133609D01*
X101807Y134783D01*
X101652Y135958D01*
X101198Y137053D01*
X100477Y137993D01*
X100099Y138284D01*
X100777Y140284D01*
X101768D01*
Y149284D01*
D02*
G37*
G36*
X16543Y107519D02*
Y98039D01*
X21339D01*
Y102289D01*
X21158Y103660D01*
X20629Y104937D01*
X19788Y106034D01*
X18691Y106875D01*
X17414Y107404D01*
X16543Y107519D01*
D02*
G37*
G36*
X15543Y107519D02*
X14673Y107404D01*
X13396Y106875D01*
X12299Y106034D01*
X11457Y104937D01*
X10928Y103660D01*
X10748Y102289D01*
Y98039D01*
X15543D01*
Y107519D01*
D02*
G37*
G36*
X21339Y97039D02*
X16543D01*
Y87560D01*
X17414Y87674D01*
X18691Y88204D01*
X19788Y89045D01*
X20629Y90142D01*
X21158Y91419D01*
X21339Y92789D01*
Y97039D01*
D02*
G37*
G36*
X15543D02*
X10748D01*
Y92789D01*
X10928Y91419D01*
X11457Y90142D01*
X12299Y89045D01*
X13396Y88204D01*
X14673Y87674D01*
X15543Y87560D01*
Y97039D01*
D02*
G37*
G36*
X83634Y85283D02*
X80384D01*
Y82284D01*
X83634D01*
Y85283D01*
D02*
G37*
G36*
X10845Y82663D02*
Y76681D01*
X16827D01*
X16751Y77455D01*
X16380Y78681D01*
X15776Y79810D01*
X14964Y80800D01*
X13974Y81612D01*
X12845Y82215D01*
X11620Y82587D01*
X10845Y82663D01*
D02*
G37*
G36*
X9845Y82663D02*
X9071Y82587D01*
X7846Y82215D01*
X6717Y81612D01*
X5727Y80800D01*
X4915Y79810D01*
X4311Y78681D01*
X3939Y77455D01*
X3863Y76681D01*
X9845D01*
Y82663D01*
D02*
G37*
G36*
X185782Y78531D02*
Y74305D01*
X190007D01*
X189910Y75046D01*
X189431Y76201D01*
X188670Y77193D01*
X187678Y77955D01*
X186522Y78433D01*
X185782Y78531D01*
D02*
G37*
G36*
X184782D02*
X184042Y78433D01*
X182887Y77955D01*
X181895Y77193D01*
X181133Y76201D01*
X180655Y75046D01*
X180557Y74305D01*
X184782D01*
Y78531D01*
D02*
G37*
G36*
X158682D02*
Y74305D01*
X162907D01*
X162810Y75046D01*
X162331Y76201D01*
X161570Y77193D01*
X160578Y77955D01*
X159422Y78433D01*
X158682Y78531D01*
D02*
G37*
G36*
X157682D02*
X156942Y78433D01*
X155787Y77955D01*
X154795Y77193D01*
X154033Y76201D01*
X153554Y75046D01*
X153457Y74305D01*
X157682D01*
Y78531D01*
D02*
G37*
G36*
X16827Y75681D02*
X10845D01*
Y69699D01*
X11620Y69775D01*
X12845Y70147D01*
X13974Y70750D01*
X14964Y71563D01*
X15776Y72552D01*
X16380Y73682D01*
X16751Y74907D01*
X16827Y75681D01*
D02*
G37*
G36*
X9845D02*
X3863D01*
X3939Y74907D01*
X4311Y73682D01*
X4915Y72552D01*
X5727Y71563D01*
X6717Y70750D01*
X7846Y70147D01*
X9071Y69775D01*
X9845Y69699D01*
Y75681D01*
D02*
G37*
G36*
X190007Y73305D02*
X185782D01*
Y69080D01*
X186522Y69178D01*
X187678Y69656D01*
X188670Y70418D01*
X189431Y71410D01*
X189910Y72566D01*
X190007Y73305D01*
D02*
G37*
G36*
X184782D02*
X180557D01*
X180655Y72566D01*
X181133Y71410D01*
X181895Y70418D01*
X182887Y69656D01*
X184042Y69178D01*
X184782Y69080D01*
Y73305D01*
D02*
G37*
G36*
X162907D02*
X158682D01*
Y69080D01*
X159422Y69178D01*
X160578Y69656D01*
X161570Y70418D01*
X162331Y71410D01*
X162810Y72566D01*
X162907Y73305D01*
D02*
G37*
G36*
X157682D02*
X153457D01*
X153554Y72566D01*
X154033Y71410D01*
X154795Y70418D01*
X155787Y69656D01*
X156942Y69178D01*
X157682Y69080D01*
Y73305D01*
D02*
G37*
G36*
X36516Y108089D02*
X35015Y107891D01*
X33616Y107312D01*
X32415Y106390D01*
X31493Y105189D01*
X30914Y103790D01*
X30716Y102289D01*
Y92789D01*
X30914Y91288D01*
X31493Y89890D01*
X32415Y88688D01*
X33238Y88057D01*
Y75472D01*
X18250Y60484D01*
X17626Y60364D01*
X15723Y60662D01*
X15319Y61155D01*
X14253Y62030D01*
X13037Y62680D01*
X11717Y63080D01*
X10345Y63215D01*
X8973Y63080D01*
X7654Y62680D01*
X6437Y62030D01*
X5372Y61155D01*
X4497Y60089D01*
X3847Y58873D01*
X3447Y57553D01*
X3311Y56181D01*
X3447Y54809D01*
X3847Y53489D01*
X4497Y52273D01*
X5372Y51207D01*
X6437Y50333D01*
X7654Y49683D01*
X8973Y49282D01*
X10345Y49147D01*
X11717Y49282D01*
X13037Y49683D01*
X14253Y50333D01*
X15319Y51207D01*
X16194Y52273D01*
X16530Y52903D01*
X18583D01*
X19007Y52959D01*
X19431Y53015D01*
X20222Y53342D01*
X20901Y53863D01*
X38834Y71796D01*
X39355Y72475D01*
X39682Y73266D01*
X39738Y73690D01*
X39794Y74114D01*
Y88057D01*
X40617Y88688D01*
X41538Y89890D01*
X42118Y91288D01*
X42315Y92789D01*
Y102289D01*
X42118Y103790D01*
X41538Y105189D01*
X40617Y106390D01*
X39416Y107312D01*
X38017Y107891D01*
X36516Y108089D01*
D02*
G37*
G36*
X128665Y53471D02*
Y49673D01*
X132464D01*
X132381Y50303D01*
X131945Y51355D01*
X131251Y52259D01*
X130347Y52953D01*
X129295Y53389D01*
X128665Y53471D01*
D02*
G37*
G36*
X155547Y54486D02*
X153842Y54352D01*
X152178Y53953D01*
X150597Y53298D01*
X149138Y52404D01*
X147837Y51293D01*
X146726Y49992D01*
X145832Y48533D01*
X145177Y46952D01*
X144778Y45289D01*
X144644Y43583D01*
X144778Y41877D01*
X145177Y40213D01*
X145832Y38633D01*
X146726Y37174D01*
X147837Y35873D01*
X149138Y34762D01*
X150597Y33867D01*
X152178Y33213D01*
X153842Y32813D01*
X155547Y32679D01*
X157253Y32813D01*
X158917Y33213D01*
X160497Y33867D01*
X161956Y34762D01*
X163257Y35873D01*
X164369Y37174D01*
X165263Y38633D01*
X165917Y40213D01*
X166317Y41877D01*
X166451Y43583D01*
X166317Y45289D01*
X165917Y46952D01*
X165263Y48533D01*
X164369Y49992D01*
X163257Y51293D01*
X161956Y52404D01*
X160497Y53298D01*
X158917Y53953D01*
X157253Y54352D01*
X155547Y54486D01*
D02*
G37*
G36*
X57043Y108089D02*
X55542Y107891D01*
X54144Y107312D01*
X52942Y106390D01*
X52021Y105189D01*
X51441Y103790D01*
X51244Y102289D01*
Y92789D01*
X51441Y91288D01*
X52021Y89890D01*
X52942Y88688D01*
X53765Y88057D01*
Y66767D01*
X26195Y39197D01*
X16792D01*
X16456Y39827D01*
X15581Y40893D01*
X14515Y41768D01*
X13299Y42418D01*
X11979Y42818D01*
X10607Y42953D01*
X9235Y42818D01*
X7915Y42418D01*
X6699Y41768D01*
X5633Y40893D01*
X4759Y39827D01*
X4109Y38611D01*
X3709Y37291D01*
X3573Y35919D01*
X3709Y34547D01*
X4109Y33228D01*
X4759Y32011D01*
X5633Y30946D01*
X6699Y30071D01*
X7915Y29421D01*
X9235Y29021D01*
X10607Y28885D01*
X11979Y29021D01*
X13299Y29421D01*
X14515Y30071D01*
X15581Y30946D01*
X16456Y32011D01*
X16792Y32641D01*
X27553D01*
X27977Y32697D01*
X28401Y32753D01*
X29192Y33080D01*
X29871Y33601D01*
X45721Y49451D01*
X47446Y48533D01*
X46791Y46952D01*
X46392Y45289D01*
X46258Y43583D01*
X46392Y41877D01*
X46791Y40213D01*
X47446Y38633D01*
X48340Y37174D01*
X49452Y35873D01*
X50753Y34762D01*
X52211Y33867D01*
X53792Y33213D01*
X55456Y32813D01*
X57161Y32679D01*
X58867Y32813D01*
X60531Y33213D01*
X62112Y33867D01*
X63571Y34762D01*
X64872Y35873D01*
X65983Y37174D01*
X66877Y38633D01*
X67532Y40213D01*
X67931Y41877D01*
X68065Y43583D01*
X67931Y45289D01*
X67532Y46952D01*
X66877Y48533D01*
X65983Y49992D01*
X64872Y51293D01*
X63571Y52404D01*
X62112Y53298D01*
X60531Y53953D01*
X58867Y54352D01*
X57161Y54486D01*
X55456Y54352D01*
X53792Y53953D01*
X52211Y53298D01*
X51293Y55023D01*
X59361Y63091D01*
X59882Y63770D01*
X60210Y64561D01*
X60321Y65409D01*
Y88057D01*
X61144Y88688D01*
X62066Y89890D01*
X62645Y91288D01*
X62843Y92789D01*
Y102289D01*
X62645Y103790D01*
X62066Y105189D01*
X61144Y106390D01*
X59943Y107312D01*
X58544Y107891D01*
X57043Y108089D01*
D02*
G37*
G36*
X199614Y20772D02*
Y13394D01*
X206993D01*
X206890Y14440D01*
X206439Y15928D01*
X205706Y17298D01*
X204720Y18500D01*
X203519Y19486D01*
X202148Y20218D01*
X200661Y20669D01*
X199614Y20772D01*
D02*
G37*
G36*
X16445D02*
Y13394D01*
X23824D01*
X23720Y14440D01*
X23269Y15928D01*
X22537Y17298D01*
X21551Y18500D01*
X20349Y19486D01*
X18979Y20218D01*
X17492Y20669D01*
X16445Y20772D01*
D02*
G37*
G36*
X198614D02*
X197567Y20669D01*
X196080Y20218D01*
X194710Y19486D01*
X193508Y18500D01*
X192522Y17298D01*
X191790Y15928D01*
X191339Y14440D01*
X191235Y13394D01*
X198614D01*
Y20772D01*
D02*
G37*
G36*
X15445D02*
X14398Y20669D01*
X12911Y20218D01*
X11540Y19486D01*
X10339Y18500D01*
X9353Y17298D01*
X8620Y15928D01*
X8169Y14440D01*
X8066Y13394D01*
X15445D01*
Y20772D01*
D02*
G37*
G36*
X206993Y12394D02*
X199614D01*
Y5015D01*
X200661Y5118D01*
X202148Y5569D01*
X203519Y6302D01*
X204720Y7288D01*
X205706Y8489D01*
X206439Y9860D01*
X206890Y11347D01*
X206993Y12394D01*
D02*
G37*
G36*
X23824D02*
X16445D01*
Y5015D01*
X17492Y5118D01*
X18979Y5569D01*
X20349Y6302D01*
X21551Y7288D01*
X22537Y8489D01*
X23269Y9860D01*
X23720Y11347D01*
X23824Y12394D01*
D02*
G37*
G36*
X198614D02*
X191235D01*
X191339Y11347D01*
X191790Y9860D01*
X192522Y8489D01*
X193508Y7288D01*
X194710Y6302D01*
X196080Y5569D01*
X197567Y5118D01*
X198614Y5015D01*
Y12394D01*
D02*
G37*
G36*
X15445D02*
X8066D01*
X8169Y11347D01*
X8620Y9860D01*
X9353Y8489D01*
X10339Y7288D01*
X11540Y6302D01*
X12911Y5569D01*
X14398Y5118D01*
X15445Y5015D01*
Y12394D01*
D02*
G37*
%LPD*%
G36*
X169765Y304511D02*
X169942Y304500D01*
X170287Y304444D01*
X170598Y304366D01*
X170742Y304322D01*
X170876Y304277D01*
X170998Y304233D01*
X171109Y304200D01*
X171198Y304155D01*
X171275Y304122D01*
X171342Y304088D01*
X171387Y304066D01*
X171420Y304044D01*
X171431D01*
X171731Y303844D01*
X171998Y303622D01*
X172231Y303389D01*
X172420Y303166D01*
X172564Y302977D01*
X172620Y302888D01*
X172664Y302811D01*
X172709Y302755D01*
X172731Y302700D01*
X172742Y302677D01*
X172753Y302666D01*
X172909Y302322D01*
X173020Y301977D01*
X173098Y301633D01*
X173153Y301311D01*
X173175Y301178D01*
X173187Y301044D01*
X173198Y300922D01*
Y300822D01*
X173209Y300744D01*
Y300633D01*
X173198Y300311D01*
X173164Y300022D01*
X173120Y299767D01*
X173064Y299544D01*
X173042Y299444D01*
X173020Y299356D01*
X172998Y299289D01*
X172975Y299222D01*
X172953Y299178D01*
X172942Y299144D01*
X172931Y299122D01*
Y299111D01*
X172809Y298867D01*
X172664Y298633D01*
X172509Y298422D01*
X172364Y298233D01*
X172220Y298067D01*
X172109Y297945D01*
X172064Y297900D01*
X172031Y297867D01*
X172020Y297856D01*
X172009Y297845D01*
X171398D01*
X171653Y298078D01*
X171864Y298300D01*
X172042Y298500D01*
X172176Y298678D01*
X172287Y298833D01*
X172364Y298944D01*
X172387Y298989D01*
X172409Y299022D01*
X172420Y299033D01*
Y299044D01*
X172520Y299255D01*
X172587Y299467D01*
X172642Y299678D01*
X172675Y299867D01*
X172698Y300033D01*
Y300100D01*
X172709Y300167D01*
Y300278D01*
X172687Y300567D01*
X172642Y300833D01*
X172587Y301066D01*
X172509Y301255D01*
X172431Y301411D01*
X172375Y301522D01*
X172342Y301566D01*
X172331Y301600D01*
X172309Y301611D01*
Y301622D01*
X172142Y301800D01*
X171942Y301955D01*
X171753Y302089D01*
X171553Y302189D01*
X171376Y302277D01*
X171309Y302300D01*
X171242Y302333D01*
X171187Y302355D01*
X171142Y302366D01*
X171120Y302377D01*
X171109D01*
X170809Y302455D01*
X170498Y302511D01*
X170209Y302555D01*
X169931Y302577D01*
X169809Y302589D01*
X169698Y302600D01*
X169598D01*
X169520Y302611D01*
X169442D01*
X169398D01*
X169365D01*
X169353D01*
X168998Y302600D01*
X168665Y302555D01*
X168365Y302511D01*
X168220Y302477D01*
X168098Y302444D01*
X167987Y302422D01*
X167876Y302389D01*
X167787Y302366D01*
X167720Y302333D01*
X167654Y302322D01*
X167609Y302300D01*
X167587Y302289D01*
X167576D01*
X167354Y302178D01*
X167154Y302044D01*
X166976Y301911D01*
X166832Y301778D01*
X166709Y301655D01*
X166621Y301555D01*
X166576Y301489D01*
X166554Y301478D01*
Y301466D01*
X166420Y301255D01*
X166332Y301044D01*
X166265Y300833D01*
X166209Y300644D01*
X166187Y300478D01*
X166176Y300411D01*
Y300344D01*
X166165Y300300D01*
Y300089D01*
X166187Y299944D01*
X166243Y299667D01*
X166332Y299433D01*
X166420Y299211D01*
X166521Y299044D01*
X166565Y298967D01*
X166609Y298911D01*
X166643Y298867D01*
X166665Y298833D01*
X166676Y298811D01*
X166687Y298800D01*
X166898Y298578D01*
X167143Y298400D01*
X167387Y298245D01*
X167631Y298133D01*
X167854Y298044D01*
X167943Y298011D01*
X168020Y297978D01*
X168098Y297956D01*
X168142Y297945D01*
X168176Y297933D01*
X168187D01*
Y297722D01*
X165698D01*
Y297933D01*
X165798Y297956D01*
X165876Y297978D01*
X165943Y298000D01*
X165998Y298033D01*
X166043Y298056D01*
X166076Y298078D01*
X166087Y298089D01*
X166098Y298100D01*
X166143Y298145D01*
X166165Y298200D01*
X166209Y298289D01*
X166220Y298356D01*
Y298389D01*
X166209Y298456D01*
X166187Y298545D01*
X166165Y298644D01*
X166121Y298745D01*
X166087Y298845D01*
X166065Y298933D01*
X166043Y298989D01*
X166032Y299000D01*
Y299011D01*
X165920Y299322D01*
X165843Y299622D01*
X165776Y299889D01*
X165743Y300122D01*
X165720Y300233D01*
Y300322D01*
X165709Y300411D01*
X165698Y300478D01*
Y300800D01*
X165720Y300989D01*
X165776Y301344D01*
X165865Y301666D01*
X165909Y301822D01*
X165954Y301955D01*
X165998Y302089D01*
X166043Y302200D01*
X166087Y302300D01*
X166132Y302389D01*
X166165Y302455D01*
X166187Y302500D01*
X166198Y302533D01*
X166209Y302544D01*
X166420Y302866D01*
X166654Y303155D01*
X166887Y303400D01*
X167120Y303611D01*
X167220Y303699D01*
X167320Y303766D01*
X167409Y303833D01*
X167487Y303888D01*
X167554Y303933D01*
X167598Y303966D01*
X167631Y303977D01*
X167643Y303988D01*
X167820Y304077D01*
X167987Y304166D01*
X168331Y304299D01*
X168665Y304388D01*
X168965Y304455D01*
X169098Y304477D01*
X169209Y304488D01*
X169320Y304511D01*
X169409D01*
X169487Y304522D01*
X169542D01*
X169576D01*
X169587D01*
X169765Y304511D01*
D02*
G37*
G36*
X169709Y296711D02*
X169953Y296689D01*
X170198Y296645D01*
X170420Y296589D01*
X170642Y296534D01*
X170842Y296456D01*
X171031Y296378D01*
X171198Y296300D01*
X171353Y296222D01*
X171498Y296156D01*
X171609Y296078D01*
X171709Y296023D01*
X171798Y295967D01*
X171853Y295922D01*
X171887Y295900D01*
X171898Y295889D01*
X172131Y295678D01*
X172331Y295456D01*
X172509Y295223D01*
X172653Y294978D01*
X172786Y294723D01*
X172887Y294478D01*
X172975Y294234D01*
X173042Y294001D01*
X173098Y293778D01*
X173142Y293567D01*
X173164Y293378D01*
X173187Y293223D01*
X173198Y293090D01*
X173209Y292989D01*
Y292901D01*
X173198Y292545D01*
X173153Y292212D01*
X173087Y291901D01*
X172998Y291612D01*
X172887Y291345D01*
X172775Y291101D01*
X172653Y290879D01*
X172520Y290679D01*
X172398Y290501D01*
X172275Y290345D01*
X172153Y290212D01*
X172053Y290101D01*
X171964Y290012D01*
X171898Y289945D01*
X171853Y289912D01*
X171842Y289901D01*
X171642Y289756D01*
X171442Y289634D01*
X171231Y289534D01*
X171020Y289434D01*
X170820Y289356D01*
X170620Y289301D01*
X170431Y289245D01*
X170242Y289201D01*
X170076Y289168D01*
X169920Y289145D01*
X169776Y289123D01*
X169665Y289112D01*
X169565Y289101D01*
X169487D01*
X169442D01*
X169431D01*
X169142Y289112D01*
X168854Y289145D01*
X168587Y289201D01*
X168342Y289268D01*
X168109Y289345D01*
X167887Y289445D01*
X167687Y289534D01*
X167498Y289634D01*
X167343Y289745D01*
X167198Y289834D01*
X167065Y289923D01*
X166965Y290012D01*
X166887Y290079D01*
X166820Y290134D01*
X166787Y290168D01*
X166776Y290179D01*
X166587Y290390D01*
X166420Y290601D01*
X166287Y290834D01*
X166165Y291068D01*
X166065Y291301D01*
X165987Y291534D01*
X165920Y291756D01*
X165865Y291967D01*
X165832Y292179D01*
X165798Y292367D01*
X165787Y292534D01*
X165776Y292678D01*
X165765Y292801D01*
Y293256D01*
X165787Y293534D01*
X165843Y293800D01*
X165898Y294056D01*
X165976Y294289D01*
X166065Y294512D01*
X166154Y294711D01*
X166254Y294900D01*
X166343Y295067D01*
X166443Y295212D01*
X166532Y295345D01*
X166609Y295445D01*
X166676Y295534D01*
X166732Y295589D01*
X166765Y295634D01*
X166776Y295645D01*
X166976Y295834D01*
X167198Y296000D01*
X167420Y296145D01*
X167643Y296267D01*
X167865Y296367D01*
X168087Y296456D01*
X168298Y296534D01*
X168509Y296589D01*
X168698Y296634D01*
X168876Y296667D01*
X169042Y296689D01*
X169176Y296700D01*
X169287Y296711D01*
X169376Y296723D01*
X169420D01*
X169442D01*
X169709Y296711D01*
D02*
G37*
G36*
X166065Y288445D02*
X166076Y288346D01*
X166098Y288268D01*
X166109Y288190D01*
X166132Y288134D01*
X166154Y288101D01*
X166165Y288079D01*
Y288068D01*
X166209Y288001D01*
X166265Y287923D01*
X166387Y287790D01*
X166443Y287735D01*
X166498Y287690D01*
X166532Y287668D01*
X166543Y287657D01*
X166732Y287501D01*
X171798D01*
X171998Y287512D01*
X172164Y287534D01*
X172309Y287579D01*
X172420Y287612D01*
X172509Y287657D01*
X172575Y287701D01*
X172609Y287723D01*
X172620Y287735D01*
X172698Y287835D01*
X172753Y287957D01*
X172798Y288101D01*
X172820Y288234D01*
X172842Y288357D01*
X172853Y288457D01*
Y288557D01*
X173042D01*
Y286012D01*
X172853D01*
Y286190D01*
X172842Y286323D01*
X172820Y286446D01*
X172786Y286557D01*
X172742Y286646D01*
X172709Y286723D01*
X172675Y286790D01*
X172653Y286824D01*
X172642Y286835D01*
X172542Y286923D01*
X172420Y286990D01*
X172275Y287046D01*
X172131Y287079D01*
X172009Y287101D01*
X171898Y287112D01*
X171853D01*
X171820D01*
X171809D01*
X171798D01*
X167232D01*
X173209Y282291D01*
Y282102D01*
X167232D01*
X167054D01*
X166909Y282091D01*
X166787Y282080D01*
X166687Y282057D01*
X166609Y282046D01*
X166554Y282035D01*
X166532Y282024D01*
X166521D01*
X166443Y281991D01*
X166387Y281946D01*
X166287Y281868D01*
X166243Y281802D01*
X166220Y281791D01*
Y281780D01*
X166187Y281713D01*
X166154Y281613D01*
X166098Y281413D01*
X166076Y281313D01*
X166065Y281235D01*
X166054Y281180D01*
Y281157D01*
X165865D01*
Y283524D01*
X166054D01*
X166065Y283313D01*
X166098Y283146D01*
X166154Y283002D01*
X166198Y282879D01*
X166254Y282790D01*
X166309Y282724D01*
X166343Y282691D01*
X166354Y282679D01*
X166454Y282613D01*
X166587Y282568D01*
X166732Y282535D01*
X166876Y282513D01*
X167020Y282502D01*
X167131Y282490D01*
X167165D01*
X167198D01*
X167220D01*
X167232D01*
X170320D01*
X165865Y286023D01*
Y288568D01*
X166054D01*
X166065Y288445D01*
D02*
G37*
G36*
X166076Y280657D02*
X166109Y280535D01*
X166154Y280435D01*
X166187Y280357D01*
X166232Y280302D01*
X166254Y280269D01*
X166276Y280246D01*
X166287Y280235D01*
X166332Y280202D01*
X166387Y280169D01*
X166465Y280124D01*
X166554Y280080D01*
X166754Y279980D01*
X166965Y279880D01*
X167165Y279780D01*
X167265Y279746D01*
X167343Y279702D01*
X167409Y279680D01*
X167465Y279658D01*
X167498Y279635D01*
X167509D01*
X173209Y277191D01*
Y277002D01*
X167731Y274536D01*
X167554Y274458D01*
X167398Y274380D01*
X167243Y274314D01*
X167120Y274247D01*
X166998Y274191D01*
X166898Y274136D01*
X166809Y274091D01*
X166732Y274047D01*
X166665Y274003D01*
X166609Y273969D01*
X166532Y273925D01*
X166487Y273891D01*
X166476Y273880D01*
X166354Y273758D01*
X166265Y273636D01*
X166187Y273525D01*
X166132Y273414D01*
X166098Y273325D01*
X166065Y273247D01*
X166054Y273203D01*
Y273180D01*
X165865D01*
Y275525D01*
X166054D01*
Y275391D01*
X166065Y275269D01*
X166087Y275169D01*
X166098Y275080D01*
X166121Y275013D01*
X166143Y274969D01*
X166154Y274936D01*
Y274925D01*
X166209Y274814D01*
X166265Y274736D01*
X166309Y274691D01*
X166321Y274680D01*
X166332D01*
X166432Y274625D01*
X166521Y274602D01*
X166587Y274591D01*
X166609D01*
X166621D01*
X166732Y274602D01*
X166832Y274614D01*
X166887Y274625D01*
X166920Y274636D01*
X166943Y274647D01*
X166954D01*
X167043Y274680D01*
X167154Y274725D01*
X167287Y274769D01*
X167420Y274825D01*
X167543Y274880D01*
X167643Y274925D01*
X167709Y274958D01*
X167720Y274969D01*
X167731D01*
X170909Y276380D01*
X167332Y277913D01*
X167143Y277991D01*
X166987Y278058D01*
X166865Y278113D01*
X166776Y278147D01*
X166709Y278180D01*
X166676Y278191D01*
X166654Y278202D01*
X166643D01*
X166554Y278224D01*
X166476Y278235D01*
X166432D01*
X166409D01*
X166354Y278224D01*
X166309Y278213D01*
X166232Y278169D01*
X166187Y278135D01*
X166176Y278113D01*
X166132Y278035D01*
X166109Y277947D01*
X166065Y277735D01*
Y277636D01*
X166054Y277558D01*
Y277369D01*
X165865D01*
Y280802D01*
X166054D01*
X166076Y280657D01*
D02*
G37*
G36*
X173042Y266670D02*
X170765Y266337D01*
Y266537D01*
X170942Y266592D01*
X171098Y266648D01*
X171253Y266714D01*
X171387Y266781D01*
X171520Y266859D01*
X171631Y266936D01*
X171742Y267003D01*
X171831Y267070D01*
X171920Y267148D01*
X171987Y267203D01*
X172053Y267259D01*
X172098Y267314D01*
X172142Y267359D01*
X172164Y267392D01*
X172176Y267403D01*
X172187Y267414D01*
X172342Y267659D01*
X172453Y267914D01*
X172531Y268192D01*
X172587Y268447D01*
X172609Y268559D01*
X172620Y268670D01*
X172631Y268770D01*
Y268859D01*
X172642Y268925D01*
Y269559D01*
X172631Y269647D01*
X172620Y269725D01*
X172598Y269781D01*
X172587Y269836D01*
X172575Y269870D01*
X172564Y269881D01*
Y269892D01*
X172486Y269981D01*
X172420Y270036D01*
X172364Y270070D01*
X172342Y270081D01*
X172275Y270092D01*
X172176Y270103D01*
X172053Y270114D01*
X171931D01*
X171809Y270125D01*
X171709D01*
X171642D01*
X171631D01*
X171620D01*
X169598D01*
X169609Y269947D01*
X169620Y269792D01*
X169642Y269658D01*
X169665Y269547D01*
X169698Y269459D01*
X169720Y269392D01*
X169731Y269358D01*
X169742Y269347D01*
X169798Y269247D01*
X169876Y269159D01*
X169965Y269070D01*
X170053Y269003D01*
X170131Y268948D01*
X170198Y268903D01*
X170242Y268881D01*
X170264Y268870D01*
X170420Y268792D01*
X170587Y268736D01*
X170753Y268692D01*
X170909Y268648D01*
X171053Y268625D01*
X171164Y268603D01*
X171209D01*
X171242Y268592D01*
X171253D01*
X171264D01*
Y268392D01*
X167509D01*
Y268592D01*
X167809Y268636D01*
X168065Y268692D01*
X168276Y268759D01*
X168454Y268825D01*
X168598Y268892D01*
X168698Y268936D01*
X168754Y268981D01*
X168776Y268992D01*
X168920Y269125D01*
X169020Y269281D01*
X169098Y269447D01*
X169142Y269603D01*
X169176Y269759D01*
X169187Y269881D01*
X169198Y269925D01*
Y270125D01*
X166276D01*
Y269114D01*
X166287Y268992D01*
Y268881D01*
X166309Y268681D01*
X166321Y268536D01*
X166343Y268414D01*
X166365Y268336D01*
X166376Y268292D01*
Y268281D01*
X166443Y268103D01*
X166521Y267936D01*
X166598Y267803D01*
X166687Y267692D01*
X166754Y267603D01*
X166820Y267548D01*
X166865Y267503D01*
X166876Y267492D01*
X167020Y267392D01*
X167187Y267303D01*
X167376Y267236D01*
X167554Y267170D01*
X167720Y267125D01*
X167865Y267092D01*
X167909Y267070D01*
X167954D01*
X167976Y267059D01*
X167987D01*
Y266859D01*
X165865D01*
Y272858D01*
X166054D01*
Y272625D01*
X166065Y272503D01*
X166076Y272392D01*
X166098Y272303D01*
X166132Y272225D01*
X166165Y272158D01*
X166187Y272114D01*
X166198Y272092D01*
X166209Y272080D01*
X166298Y271992D01*
X166387Y271925D01*
X166432Y271903D01*
X166465Y271892D01*
X166487Y271881D01*
X166498D01*
X166554Y271869D01*
X166632Y271858D01*
X166732D01*
X166832Y271847D01*
X166931D01*
X167009D01*
X167065D01*
X167076D01*
X167087D01*
X171820D01*
X172009D01*
X172153Y271858D01*
X172275Y271869D01*
X172364Y271881D01*
X172431Y271892D01*
X172464Y271903D01*
X172486Y271914D01*
X172498D01*
X172609Y271969D01*
X172687Y272047D01*
X172731Y272103D01*
X172742Y272114D01*
Y272125D01*
X172775Y272203D01*
X172809Y272281D01*
X172842Y272447D01*
Y272514D01*
X172853Y272569D01*
Y272858D01*
X173042D01*
Y266670D01*
D02*
G37*
G36*
Y261959D02*
X172853D01*
Y262137D01*
X172842Y262281D01*
X172820Y262393D01*
X172809Y262492D01*
X172786Y262559D01*
X172775Y262615D01*
X172764Y262637D01*
Y262648D01*
X172687Y262759D01*
X172609Y262837D01*
X172553Y262881D01*
X172542Y262893D01*
X172531D01*
X172453Y262915D01*
X172353Y262926D01*
X172231Y262948D01*
X172109D01*
X171987Y262959D01*
X171887D01*
X171820D01*
X171809D01*
X171798D01*
X169776D01*
Y262492D01*
X173042Y260182D01*
Y257915D01*
X172842D01*
X172831Y258015D01*
X172809Y258115D01*
X172786Y258204D01*
X172753Y258282D01*
X172720Y258337D01*
X172698Y258382D01*
X172687Y258415D01*
X172675Y258426D01*
X172620Y258493D01*
X172531Y258560D01*
X172431Y258637D01*
X172331Y258715D01*
X172242Y258793D01*
X172164Y258849D01*
X172109Y258893D01*
X172087Y258904D01*
X169665Y260626D01*
X169598Y260393D01*
X169520Y260193D01*
X169431Y260015D01*
X169353Y259871D01*
X169276Y259759D01*
X169220Y259671D01*
X169176Y259626D01*
X169165Y259604D01*
X169065Y259504D01*
X168954Y259415D01*
X168854Y259337D01*
X168743Y259271D01*
X168520Y259171D01*
X168309Y259093D01*
X168131Y259060D01*
X168054Y259049D01*
X167987Y259037D01*
X167931Y259026D01*
X167887D01*
X167865D01*
X167854D01*
X167620Y259037D01*
X167398Y259082D01*
X167209Y259148D01*
X167043Y259215D01*
X166909Y259293D01*
X166809Y259348D01*
X166743Y259393D01*
X166720Y259415D01*
X166554Y259571D01*
X166409Y259726D01*
X166298Y259893D01*
X166198Y260048D01*
X166132Y260193D01*
X166087Y260304D01*
X166076Y260348D01*
X166065Y260382D01*
X166054Y260393D01*
Y260404D01*
X166021Y260526D01*
X165987Y260659D01*
X165943Y260948D01*
X165909Y261270D01*
X165887Y261581D01*
X165876Y261726D01*
Y261859D01*
X165865Y261982D01*
Y265637D01*
X166054D01*
Y265470D01*
X166065Y265326D01*
X166087Y265214D01*
X166098Y265114D01*
X166121Y265048D01*
X166143Y265003D01*
X166154Y264981D01*
Y264970D01*
X166187Y264903D01*
X166232Y264848D01*
X166309Y264770D01*
X166376Y264726D01*
X166387Y264715D01*
X166398D01*
X166465Y264692D01*
X166565Y264670D01*
X166687Y264659D01*
X166809Y264648D01*
X166920Y264637D01*
X167020D01*
X167087D01*
X167098D01*
X167109D01*
X171798D01*
X171998D01*
X172153Y264648D01*
X172287Y264659D01*
X172375Y264670D01*
X172453Y264692D01*
X172498Y264703D01*
X172520Y264715D01*
X172531D01*
X172631Y264781D01*
X172698Y264859D01*
X172753Y264926D01*
X172764Y264948D01*
Y264959D01*
X172798Y265037D01*
X172820Y265137D01*
X172842Y265359D01*
X172853Y265470D01*
Y265637D01*
X173042D01*
Y261959D01*
D02*
G37*
G36*
X167809Y257437D02*
X167532Y257382D01*
X167287Y257304D01*
X167076Y257204D01*
X166898Y257104D01*
X166765Y257015D01*
X166665Y256938D01*
X166609Y256882D01*
X166587Y256860D01*
X166487Y256727D01*
X166409Y256560D01*
X166354Y256382D01*
X166309Y256215D01*
X166287Y256049D01*
X166276Y255926D01*
Y255282D01*
X171820D01*
X172009D01*
X172153Y255293D01*
X172275Y255304D01*
X172364Y255315D01*
X172431Y255327D01*
X172464Y255338D01*
X172486Y255349D01*
X172498D01*
X172609Y255416D01*
X172687Y255482D01*
X172731Y255538D01*
X172742Y255549D01*
Y255560D01*
X172775Y255638D01*
X172809Y255715D01*
X172842Y255882D01*
Y255949D01*
X172853Y256004D01*
Y256293D01*
X173042D01*
Y252549D01*
X172853D01*
Y252905D01*
X172842Y252993D01*
X172820Y253071D01*
X172798Y253149D01*
X172786Y253193D01*
X172764Y253238D01*
X172753Y253260D01*
Y253271D01*
X172709Y253327D01*
X172675Y253382D01*
X172598Y253449D01*
X172542Y253493D01*
X172531Y253505D01*
X172520D01*
X172453Y253527D01*
X172353Y253538D01*
X172231Y253549D01*
X172120D01*
X171998Y253560D01*
X171909D01*
X171842D01*
X171831D01*
X171820D01*
X166276D01*
Y252849D01*
X166287Y252705D01*
X166309Y252582D01*
X166321Y252494D01*
X166343Y252416D01*
X166365Y252360D01*
X166376Y252338D01*
Y252327D01*
X166443Y252205D01*
X166521Y252094D01*
X166609Y251994D01*
X166676Y251916D01*
X166754Y251849D01*
X166798Y251805D01*
X166843Y251782D01*
X166854Y251771D01*
X166976Y251694D01*
X167120Y251616D01*
X167287Y251560D01*
X167443Y251494D01*
X167587Y251449D01*
X167698Y251416D01*
X167743Y251405D01*
X167776Y251394D01*
X167798Y251382D01*
X167809D01*
Y251194D01*
X165865D01*
Y257638D01*
X167809D01*
Y257437D01*
D02*
G37*
G36*
X173042Y244406D02*
X170765Y244072D01*
Y244272D01*
X170942Y244328D01*
X171098Y244383D01*
X171253Y244450D01*
X171387Y244517D01*
X171520Y244594D01*
X171631Y244672D01*
X171742Y244739D01*
X171831Y244805D01*
X171920Y244883D01*
X171987Y244939D01*
X172053Y244994D01*
X172098Y245050D01*
X172142Y245094D01*
X172164Y245128D01*
X172176Y245139D01*
X172187Y245150D01*
X172342Y245394D01*
X172453Y245650D01*
X172531Y245928D01*
X172587Y246183D01*
X172609Y246294D01*
X172620Y246405D01*
X172631Y246505D01*
Y246594D01*
X172642Y246661D01*
Y247294D01*
X172631Y247383D01*
X172620Y247461D01*
X172598Y247516D01*
X172587Y247572D01*
X172575Y247605D01*
X172564Y247616D01*
Y247627D01*
X172486Y247716D01*
X172420Y247772D01*
X172364Y247805D01*
X172342Y247816D01*
X172275Y247827D01*
X172176Y247838D01*
X172053Y247850D01*
X171931D01*
X171809Y247861D01*
X171709D01*
X171642D01*
X171631D01*
X171620D01*
X169598D01*
X169609Y247683D01*
X169620Y247527D01*
X169642Y247394D01*
X169665Y247283D01*
X169698Y247194D01*
X169720Y247127D01*
X169731Y247094D01*
X169742Y247083D01*
X169798Y246983D01*
X169876Y246894D01*
X169965Y246805D01*
X170053Y246739D01*
X170131Y246683D01*
X170198Y246639D01*
X170242Y246616D01*
X170264Y246605D01*
X170420Y246528D01*
X170587Y246472D01*
X170753Y246427D01*
X170909Y246383D01*
X171053Y246361D01*
X171164Y246339D01*
X171209D01*
X171242Y246327D01*
X171253D01*
X171264D01*
Y246128D01*
X167509D01*
Y246327D01*
X167809Y246372D01*
X168065Y246427D01*
X168276Y246494D01*
X168454Y246561D01*
X168598Y246627D01*
X168698Y246672D01*
X168754Y246716D01*
X168776Y246727D01*
X168920Y246861D01*
X169020Y247016D01*
X169098Y247183D01*
X169142Y247339D01*
X169176Y247494D01*
X169187Y247616D01*
X169198Y247661D01*
Y247861D01*
X166276D01*
Y246850D01*
X166287Y246727D01*
Y246616D01*
X166309Y246416D01*
X166321Y246272D01*
X166343Y246150D01*
X166365Y246072D01*
X166376Y246027D01*
Y246016D01*
X166443Y245839D01*
X166521Y245672D01*
X166598Y245539D01*
X166687Y245428D01*
X166754Y245339D01*
X166820Y245283D01*
X166865Y245239D01*
X166876Y245228D01*
X167020Y245128D01*
X167187Y245039D01*
X167376Y244972D01*
X167554Y244905D01*
X167720Y244861D01*
X167865Y244828D01*
X167909Y244805D01*
X167954D01*
X167976Y244794D01*
X167987D01*
Y244594D01*
X165865D01*
Y250594D01*
X166054D01*
Y250360D01*
X166065Y250238D01*
X166076Y250127D01*
X166098Y250038D01*
X166132Y249960D01*
X166165Y249894D01*
X166187Y249849D01*
X166198Y249827D01*
X166209Y249816D01*
X166298Y249727D01*
X166387Y249660D01*
X166432Y249638D01*
X166465Y249627D01*
X166487Y249616D01*
X166498D01*
X166554Y249605D01*
X166632Y249594D01*
X166732D01*
X166832Y249583D01*
X166931D01*
X167009D01*
X167065D01*
X167076D01*
X167087D01*
X171820D01*
X172009D01*
X172153Y249594D01*
X172275Y249605D01*
X172364Y249616D01*
X172431Y249627D01*
X172464Y249638D01*
X172486Y249649D01*
X172498D01*
X172609Y249705D01*
X172687Y249783D01*
X172731Y249838D01*
X172742Y249849D01*
Y249861D01*
X172775Y249938D01*
X172809Y250016D01*
X172842Y250183D01*
Y250249D01*
X172853Y250305D01*
Y250594D01*
X173042D01*
Y244406D01*
D02*
G37*
G36*
Y239695D02*
X172853D01*
Y239873D01*
X172842Y240017D01*
X172820Y240128D01*
X172809Y240228D01*
X172786Y240295D01*
X172775Y240350D01*
X172764Y240372D01*
Y240384D01*
X172687Y240495D01*
X172609Y240573D01*
X172553Y240617D01*
X172542Y240628D01*
X172531D01*
X172453Y240650D01*
X172353Y240661D01*
X172231Y240684D01*
X172109D01*
X171987Y240695D01*
X171887D01*
X171820D01*
X171809D01*
X171798D01*
X169776D01*
Y240228D01*
X173042Y237917D01*
Y235651D01*
X172842D01*
X172831Y235751D01*
X172809Y235851D01*
X172786Y235940D01*
X172753Y236017D01*
X172720Y236073D01*
X172698Y236117D01*
X172687Y236151D01*
X172675Y236162D01*
X172620Y236228D01*
X172531Y236295D01*
X172431Y236373D01*
X172331Y236451D01*
X172242Y236528D01*
X172164Y236584D01*
X172109Y236629D01*
X172087Y236640D01*
X169665Y238362D01*
X169598Y238128D01*
X169520Y237928D01*
X169431Y237751D01*
X169353Y237606D01*
X169276Y237495D01*
X169220Y237406D01*
X169176Y237362D01*
X169165Y237339D01*
X169065Y237240D01*
X168954Y237151D01*
X168854Y237073D01*
X168743Y237006D01*
X168520Y236906D01*
X168309Y236828D01*
X168131Y236795D01*
X168054Y236784D01*
X167987Y236773D01*
X167931Y236762D01*
X167887D01*
X167865D01*
X167854D01*
X167620Y236773D01*
X167398Y236817D01*
X167209Y236884D01*
X167043Y236951D01*
X166909Y237028D01*
X166809Y237084D01*
X166743Y237128D01*
X166720Y237151D01*
X166554Y237306D01*
X166409Y237462D01*
X166298Y237628D01*
X166198Y237784D01*
X166132Y237928D01*
X166087Y238039D01*
X166076Y238084D01*
X166065Y238117D01*
X166054Y238128D01*
Y238139D01*
X166021Y238262D01*
X165987Y238395D01*
X165943Y238684D01*
X165909Y239006D01*
X165887Y239317D01*
X165876Y239461D01*
Y239595D01*
X165865Y239717D01*
Y243372D01*
X166054D01*
Y243206D01*
X166065Y243061D01*
X166087Y242950D01*
X166098Y242850D01*
X166121Y242783D01*
X166143Y242739D01*
X166154Y242717D01*
Y242706D01*
X166187Y242639D01*
X166232Y242583D01*
X166309Y242506D01*
X166376Y242461D01*
X166387Y242450D01*
X166398D01*
X166465Y242428D01*
X166565Y242406D01*
X166687Y242395D01*
X166809Y242383D01*
X166920Y242372D01*
X167020D01*
X167087D01*
X167098D01*
X167109D01*
X171798D01*
X171998D01*
X172153Y242383D01*
X172287Y242395D01*
X172375Y242406D01*
X172453Y242428D01*
X172498Y242439D01*
X172520Y242450D01*
X172531D01*
X172631Y242517D01*
X172698Y242595D01*
X172753Y242661D01*
X172764Y242683D01*
Y242694D01*
X172798Y242772D01*
X172820Y242872D01*
X172842Y243094D01*
X172853Y243206D01*
Y243372D01*
X173042D01*
Y239695D01*
D02*
G37*
G36*
X184332Y284335D02*
D01*
Y278713D01*
X183654D01*
Y284135D01*
D01*
Y289756D01*
X184332D01*
Y284335D01*
D02*
G37*
G36*
X182165Y278069D02*
X182021Y277991D01*
X181921Y277913D01*
X181865Y277847D01*
X181843Y277835D01*
Y277824D01*
X181776Y277713D01*
X181743Y277624D01*
X181732Y277558D01*
Y277536D01*
X181754Y277402D01*
X181788Y277258D01*
X181810Y277202D01*
X181821Y277158D01*
X181843Y277124D01*
Y277113D01*
X181910Y276947D01*
X181954Y276802D01*
X181999Y276669D01*
X182032Y276569D01*
X182054Y276480D01*
X182077Y276413D01*
X182088Y276369D01*
Y276358D01*
X182132Y276136D01*
X182143Y276025D01*
X182154Y275924D01*
X182165Y275836D01*
Y275713D01*
X182154Y275514D01*
X182132Y275325D01*
X182110Y275147D01*
X182065Y274980D01*
X182021Y274825D01*
X181965Y274680D01*
X181899Y274547D01*
X181843Y274425D01*
X181788Y274314D01*
X181721Y274214D01*
X181665Y274136D01*
X181621Y274058D01*
X181577Y274003D01*
X181543Y273969D01*
X181532Y273947D01*
X181521Y273936D01*
X181399Y273814D01*
X181265Y273703D01*
X181143Y273603D01*
X181010Y273525D01*
X180877Y273458D01*
X180743Y273403D01*
X180510Y273314D01*
X180299Y273258D01*
X180210Y273247D01*
X180132Y273236D01*
X180066Y273225D01*
X180021D01*
X179988D01*
X179977D01*
X179721Y273247D01*
X179477Y273291D01*
X179266Y273358D01*
X179077Y273436D01*
X178932Y273525D01*
X178821Y273591D01*
X178777Y273614D01*
X178744Y273636D01*
X178732Y273658D01*
X178721D01*
X178621Y273747D01*
X178510Y273858D01*
X178410Y273980D01*
X178299Y274114D01*
X178099Y274391D01*
X177921Y274680D01*
X177844Y274814D01*
X177766Y274947D01*
X177699Y275058D01*
X177644Y275169D01*
X177599Y275247D01*
X177566Y275313D01*
X177555Y275358D01*
X177544Y275369D01*
X177466Y275525D01*
X177388Y275680D01*
X177321Y275814D01*
X177255Y275924D01*
X177199Y276036D01*
X177155Y276125D01*
X177110Y276213D01*
X177066Y276280D01*
X177010Y276391D01*
X176966Y276469D01*
X176944Y276513D01*
X176933Y276524D01*
X176844Y276647D01*
X176755Y276747D01*
X176666Y276836D01*
X176588Y276902D01*
X176522Y276947D01*
X176477Y276980D01*
X176444Y277002D01*
X176433Y277013D01*
X176288Y277080D01*
X176155Y277113D01*
X176099D01*
X176055Y277124D01*
X176022D01*
X176010D01*
X175877Y277113D01*
X175744Y277080D01*
X175633Y277024D01*
X175533Y276969D01*
X175455Y276913D01*
X175399Y276858D01*
X175355Y276824D01*
X175344Y276813D01*
X175244Y276691D01*
X175177Y276547D01*
X175122Y276402D01*
X175088Y276269D01*
X175066Y276147D01*
X175055Y276047D01*
Y275958D01*
X175066Y275825D01*
X175077Y275702D01*
X175144Y275458D01*
X175233Y275236D01*
X175333Y275047D01*
X175433Y274880D01*
X175477Y274814D01*
X175522Y274758D01*
X175555Y274714D01*
X175588Y274680D01*
X175599Y274669D01*
X175610Y274658D01*
X175833Y274447D01*
X176066Y274280D01*
X176299Y274147D01*
X176533Y274047D01*
X176733Y273969D01*
X176821Y273947D01*
X176899Y273925D01*
X176955Y273914D01*
X176999Y273903D01*
X177033Y273891D01*
X177044D01*
Y273669D01*
X174655Y273725D01*
Y273880D01*
X174766Y273914D01*
X174855Y273936D01*
X174922Y273958D01*
X174977Y273991D01*
X175022Y274003D01*
X175044Y274025D01*
X175066Y274036D01*
X175110Y274102D01*
X175133Y274169D01*
X175144Y274225D01*
Y274247D01*
X175133Y274314D01*
X175122Y274391D01*
X175055Y274558D01*
X175033Y274636D01*
X174999Y274702D01*
X174988Y274747D01*
X174977Y274758D01*
X174922Y274880D01*
X174866Y275002D01*
X174833Y275102D01*
X174800Y275191D01*
X174777Y275258D01*
X174755Y275313D01*
X174744Y275347D01*
Y275358D01*
X174688Y275602D01*
X174677Y275713D01*
X174666Y275825D01*
X174655Y275913D01*
Y276036D01*
X174666Y276213D01*
X174677Y276380D01*
X174755Y276691D01*
X174844Y276969D01*
X174899Y277091D01*
X174955Y277202D01*
X175022Y277291D01*
X175077Y277380D01*
X175122Y277458D01*
X175166Y277524D01*
X175210Y277569D01*
X175244Y277602D01*
X175255Y277624D01*
X175266Y277636D01*
X175377Y277747D01*
X175499Y277835D01*
X175622Y277924D01*
X175744Y277991D01*
X175988Y278102D01*
X176222Y278180D01*
X176421Y278224D01*
X176499Y278235D01*
X176577Y278246D01*
X176644Y278258D01*
X176688D01*
X176710D01*
X176722D01*
X176910Y278246D01*
X177077Y278224D01*
X177244Y278191D01*
X177377Y278147D01*
X177499Y278102D01*
X177577Y278069D01*
X177632Y278047D01*
X177655Y278035D01*
X177810Y277936D01*
X177944Y277835D01*
X178077Y277724D01*
X178188Y277624D01*
X178277Y277524D01*
X178355Y277447D01*
X178399Y277402D01*
X178410Y277380D01*
X178477Y277291D01*
X178543Y277202D01*
X178677Y276980D01*
X178810Y276747D01*
X178944Y276513D01*
X179055Y276302D01*
X179099Y276213D01*
X179144Y276125D01*
X179177Y276058D01*
X179199Y276013D01*
X179210Y275980D01*
X179221Y275969D01*
X179343Y275725D01*
X179455Y275525D01*
X179554Y275347D01*
X179632Y275214D01*
X179699Y275114D01*
X179743Y275047D01*
X179777Y275002D01*
X179788Y274991D01*
X179866Y274891D01*
X179943Y274814D01*
X180021Y274736D01*
X180099Y274680D01*
X180155Y274636D01*
X180199Y274603D01*
X180232Y274591D01*
X180243Y274580D01*
X180332Y274536D01*
X180421Y274491D01*
X180577Y274458D01*
X180643Y274447D01*
X180688Y274436D01*
X180721D01*
X180732D01*
X180888Y274447D01*
X181021Y274491D01*
X181154Y274547D01*
X181265Y274614D01*
X181354Y274680D01*
X181421Y274736D01*
X181465Y274780D01*
X181477Y274791D01*
X181588Y274936D01*
X181665Y275091D01*
X181721Y275247D01*
X181754Y275391D01*
X181776Y275536D01*
X181799Y275636D01*
Y275736D01*
X181788Y275880D01*
X181776Y276025D01*
X181710Y276291D01*
X181610Y276536D01*
X181499Y276747D01*
X181388Y276924D01*
X181332Y277002D01*
X181288Y277058D01*
X181254Y277113D01*
X181221Y277147D01*
X181210Y277169D01*
X181199Y277180D01*
X181077Y277302D01*
X180954Y277402D01*
X180677Y277591D01*
X180388Y277747D01*
X180099Y277869D01*
X179966Y277913D01*
X179843Y277958D01*
X179743Y277991D01*
X179643Y278024D01*
X179566Y278047D01*
X179499Y278058D01*
X179466Y278069D01*
X179455D01*
Y278258D01*
X182165D01*
Y278069D01*
D02*
G37*
G36*
X176766Y272203D02*
X176488Y272147D01*
X176244Y272069D01*
X176033Y271969D01*
X175855Y271869D01*
X175722Y271780D01*
X175622Y271703D01*
X175566Y271647D01*
X175544Y271625D01*
X175444Y271492D01*
X175366Y271325D01*
X175311Y271147D01*
X175266Y270981D01*
X175244Y270814D01*
X175233Y270692D01*
Y270047D01*
X180777D01*
X180965D01*
X181110Y270058D01*
X181232Y270070D01*
X181321Y270081D01*
X181388Y270092D01*
X181421Y270103D01*
X181443Y270114D01*
X181454D01*
X181565Y270181D01*
X181643Y270247D01*
X181688Y270303D01*
X181699Y270314D01*
Y270325D01*
X181732Y270403D01*
X181765Y270481D01*
X181799Y270647D01*
Y270714D01*
X181810Y270770D01*
Y271058D01*
X181999D01*
Y267314D01*
X181810D01*
Y267670D01*
X181799Y267759D01*
X181776Y267836D01*
X181754Y267914D01*
X181743Y267959D01*
X181721Y268003D01*
X181710Y268025D01*
Y268037D01*
X181665Y268092D01*
X181632Y268148D01*
X181554Y268214D01*
X181499Y268259D01*
X181488Y268270D01*
X181477D01*
X181410Y268292D01*
X181310Y268303D01*
X181188Y268314D01*
X181077D01*
X180954Y268325D01*
X180866D01*
X180799D01*
X180788D01*
X180777D01*
X175233D01*
Y267614D01*
X175244Y267470D01*
X175266Y267348D01*
X175277Y267259D01*
X175299Y267181D01*
X175322Y267125D01*
X175333Y267103D01*
Y267092D01*
X175399Y266970D01*
X175477Y266859D01*
X175566Y266759D01*
X175633Y266681D01*
X175710Y266614D01*
X175755Y266570D01*
X175799Y266548D01*
X175811Y266537D01*
X175933Y266459D01*
X176077Y266381D01*
X176244Y266325D01*
X176399Y266259D01*
X176544Y266214D01*
X176655Y266181D01*
X176699Y266170D01*
X176733Y266159D01*
X176755Y266148D01*
X176766D01*
Y265959D01*
X174822D01*
Y272403D01*
X176766D01*
Y272203D01*
D02*
G37*
G36*
X181999Y261615D02*
X181810D01*
Y261970D01*
X181799Y262059D01*
X181776Y262137D01*
X181754Y262215D01*
X181743Y262259D01*
X181721Y262304D01*
X181710Y262326D01*
Y262337D01*
X181665Y262393D01*
X181632Y262448D01*
X181554Y262515D01*
X181499Y262559D01*
X181488Y262570D01*
X181477D01*
X181410Y262593D01*
X181310Y262604D01*
X181188Y262615D01*
X181077D01*
X180954Y262626D01*
X180866D01*
X180799D01*
X180788D01*
X180777D01*
X176044D01*
X175866D01*
X175710Y262615D01*
X175599Y262604D01*
X175511Y262593D01*
X175444D01*
X175410Y262581D01*
X175388Y262570D01*
X175377D01*
X175266Y262504D01*
X175188Y262437D01*
X175144Y262382D01*
X175133Y262359D01*
X175088Y262281D01*
X175066Y262204D01*
X175022Y262037D01*
Y261970D01*
X175011Y261915D01*
Y261615D01*
X174822D01*
Y265359D01*
X175011D01*
Y265015D01*
X175033Y264926D01*
X175044Y264837D01*
X175066Y264770D01*
X175088Y264715D01*
X175099Y264681D01*
X175122Y264659D01*
Y264648D01*
X175155Y264581D01*
X175199Y264537D01*
X175277Y264459D01*
X175344Y264426D01*
X175355Y264415D01*
X175366D01*
X175433Y264392D01*
X175533Y264370D01*
X175644Y264359D01*
X175755D01*
X175866Y264348D01*
X175955D01*
X176022D01*
X176033D01*
X176044D01*
X180777D01*
X180965D01*
X181110Y264359D01*
X181232Y264370D01*
X181321Y264381D01*
X181388Y264392D01*
X181421Y264404D01*
X181443Y264415D01*
X181454D01*
X181565Y264470D01*
X181643Y264548D01*
X181688Y264603D01*
X181699Y264615D01*
Y264626D01*
X181732Y264703D01*
X181765Y264781D01*
X181799Y264948D01*
Y265015D01*
X181810Y265070D01*
Y265359D01*
X181999D01*
Y261615D01*
D02*
G37*
G36*
X184332Y256038D02*
D01*
Y250416D01*
X183654D01*
Y255838D01*
D01*
Y261459D01*
X184332D01*
Y256038D01*
D02*
G37*
G36*
X162215Y291284D02*
X162204Y291006D01*
X162193Y290751D01*
X162160Y290506D01*
X162115Y290284D01*
X162071Y290073D01*
X162015Y289884D01*
X161960Y289706D01*
X161893Y289551D01*
X161837Y289418D01*
X161782Y289295D01*
X161726Y289195D01*
X161682Y289107D01*
X161637Y289051D01*
X161604Y288996D01*
X161593Y288973D01*
X161582Y288962D01*
X161482Y288851D01*
X161371Y288740D01*
X161260Y288662D01*
X161149Y288584D01*
X161038Y288518D01*
X160926Y288462D01*
X160704Y288384D01*
X160527Y288340D01*
X160438Y288329D01*
X160371Y288318D01*
X160316Y288307D01*
X160271D01*
X160249D01*
X160238D01*
X160093Y288318D01*
X159960Y288329D01*
X159715Y288396D01*
X159504Y288495D01*
X159327Y288607D01*
X159182Y288718D01*
X159082Y288818D01*
X159016Y288884D01*
X158993Y288896D01*
Y288907D01*
X158927Y288996D01*
X158871Y289095D01*
X158760Y289306D01*
X158660Y289551D01*
X158582Y289795D01*
X158516Y290018D01*
X158482Y290107D01*
X158460Y290195D01*
X158438Y290262D01*
X158427Y290318D01*
X158416Y290351D01*
Y290362D01*
X158371Y290184D01*
X158316Y290029D01*
X158271Y289884D01*
X158216Y289751D01*
X158160Y289629D01*
X158116Y289518D01*
X158060Y289418D01*
X158016Y289340D01*
X157960Y289262D01*
X157916Y289195D01*
X157849Y289107D01*
X157805Y289051D01*
X157782Y289029D01*
X157627Y288896D01*
X157460Y288807D01*
X157305Y288740D01*
X157160Y288684D01*
X157038Y288662D01*
X156938Y288651D01*
X156871Y288640D01*
X156860D01*
X156849D01*
X156671Y288651D01*
X156494Y288684D01*
X156338Y288740D01*
X156205Y288784D01*
X156094Y288840D01*
X156005Y288896D01*
X155949Y288929D01*
X155927Y288940D01*
X155772Y289062D01*
X155638Y289195D01*
X155516Y289329D01*
X155427Y289462D01*
X155349Y289573D01*
X155305Y289662D01*
X155271Y289729D01*
X155260Y289740D01*
Y289751D01*
X155216Y289851D01*
X155183Y289973D01*
X155160Y290107D01*
X155127Y290240D01*
X155094Y290529D01*
X155060Y290817D01*
Y290951D01*
X155049Y291073D01*
Y291195D01*
X155038Y291295D01*
Y294939D01*
X155227D01*
Y294761D01*
X155238Y294617D01*
X155260Y294506D01*
X155271Y294417D01*
X155294Y294339D01*
X155316Y294295D01*
X155327Y294273D01*
Y294262D01*
X155405Y294150D01*
X155483Y294073D01*
X155549Y294028D01*
X155560Y294017D01*
X155571D01*
X155638Y293995D01*
X155749Y293973D01*
X155860Y293962D01*
X155982Y293951D01*
X156105Y293939D01*
X156205D01*
X156271D01*
X156282D01*
X156294D01*
X160960D01*
X161160D01*
X161327Y293951D01*
X161449Y293962D01*
X161549Y293973D01*
X161626Y293995D01*
X161671Y294006D01*
X161693Y294017D01*
X161704D01*
X161804Y294084D01*
X161871Y294162D01*
X161926Y294228D01*
X161937Y294250D01*
Y294262D01*
X161971Y294339D01*
X161993Y294439D01*
X162015Y294662D01*
X162026Y294773D01*
Y294939D01*
X162215D01*
Y291284D01*
D02*
G37*
G36*
Y283974D02*
X162026D01*
Y284329D01*
X162015Y284418D01*
X161993Y284496D01*
X161971Y284574D01*
X161960Y284618D01*
X161937Y284663D01*
X161926Y284685D01*
Y284696D01*
X161882Y284751D01*
X161849Y284807D01*
X161771Y284874D01*
X161715Y284918D01*
X161704Y284929D01*
X161693D01*
X161626Y284951D01*
X161526Y284963D01*
X161404Y284974D01*
X161293D01*
X161171Y284985D01*
X161082D01*
X161015D01*
X161004D01*
X160993D01*
X156260D01*
X156082D01*
X155927Y284974D01*
X155816Y284963D01*
X155727Y284951D01*
X155660D01*
X155627Y284940D01*
X155605Y284929D01*
X155594D01*
X155483Y284862D01*
X155405Y284796D01*
X155360Y284740D01*
X155349Y284718D01*
X155305Y284640D01*
X155283Y284563D01*
X155238Y284396D01*
Y284329D01*
X155227Y284274D01*
Y283974D01*
X155038D01*
Y287718D01*
X155227D01*
Y287373D01*
X155249Y287284D01*
X155260Y287196D01*
X155283Y287129D01*
X155305Y287073D01*
X155316Y287040D01*
X155338Y287018D01*
Y287007D01*
X155371Y286940D01*
X155416Y286896D01*
X155494Y286818D01*
X155560Y286785D01*
X155571Y286773D01*
X155583D01*
X155649Y286751D01*
X155749Y286729D01*
X155860Y286718D01*
X155971D01*
X156082Y286707D01*
X156171D01*
X156238D01*
X156249D01*
X156260D01*
X160993D01*
X161182D01*
X161327Y286718D01*
X161449Y286729D01*
X161538Y286740D01*
X161604Y286751D01*
X161637Y286762D01*
X161660Y286773D01*
X161671D01*
X161782Y286829D01*
X161860Y286907D01*
X161904Y286962D01*
X161915Y286973D01*
Y286984D01*
X161949Y287062D01*
X161982Y287140D01*
X162015Y287307D01*
Y287373D01*
X162026Y287429D01*
Y287718D01*
X162215D01*
Y283974D01*
D02*
G37*
G36*
X158938Y283274D02*
X159116Y283263D01*
X159460Y283207D01*
X159771Y283129D01*
X159915Y283085D01*
X160049Y283040D01*
X160171Y282996D01*
X160282Y282963D01*
X160371Y282918D01*
X160449Y282885D01*
X160515Y282852D01*
X160560Y282829D01*
X160593Y282807D01*
X160604D01*
X160904Y282607D01*
X161171Y282385D01*
X161404Y282152D01*
X161593Y281929D01*
X161738Y281741D01*
X161793Y281652D01*
X161837Y281574D01*
X161882Y281518D01*
X161904Y281463D01*
X161915Y281441D01*
X161926Y281430D01*
X162082Y281085D01*
X162193Y280741D01*
X162271Y280396D01*
X162326Y280074D01*
X162349Y279941D01*
X162360Y279807D01*
X162371Y279685D01*
Y279585D01*
X162382Y279507D01*
Y279396D01*
X162371Y279074D01*
X162338Y278785D01*
X162293Y278530D01*
X162238Y278308D01*
X162215Y278208D01*
X162193Y278119D01*
X162171Y278052D01*
X162149Y277985D01*
X162126Y277941D01*
X162115Y277908D01*
X162104Y277886D01*
Y277874D01*
X161982Y277630D01*
X161837Y277397D01*
X161682Y277186D01*
X161538Y276997D01*
X161393Y276830D01*
X161282Y276708D01*
X161238Y276663D01*
X161204Y276630D01*
X161193Y276619D01*
X161182Y276608D01*
X160571D01*
X160827Y276841D01*
X161038Y277063D01*
X161215Y277263D01*
X161349Y277441D01*
X161460Y277597D01*
X161538Y277708D01*
X161560Y277752D01*
X161582Y277785D01*
X161593Y277797D01*
Y277808D01*
X161693Y278019D01*
X161760Y278230D01*
X161815Y278441D01*
X161849Y278630D01*
X161871Y278797D01*
Y278863D01*
X161882Y278930D01*
Y279041D01*
X161860Y279330D01*
X161815Y279596D01*
X161760Y279830D01*
X161682Y280019D01*
X161604Y280174D01*
X161549Y280285D01*
X161515Y280330D01*
X161504Y280363D01*
X161482Y280374D01*
Y280385D01*
X161315Y280563D01*
X161115Y280718D01*
X160926Y280852D01*
X160726Y280952D01*
X160549Y281041D01*
X160482Y281063D01*
X160415Y281096D01*
X160360Y281118D01*
X160316Y281130D01*
X160293Y281141D01*
X160282D01*
X159982Y281219D01*
X159671Y281274D01*
X159382Y281318D01*
X159105Y281341D01*
X158982Y281352D01*
X158871Y281363D01*
X158771D01*
X158693Y281374D01*
X158616D01*
X158571D01*
X158538D01*
X158527D01*
X158171Y281363D01*
X157838Y281318D01*
X157538Y281274D01*
X157394Y281241D01*
X157271Y281207D01*
X157160Y281185D01*
X157049Y281152D01*
X156960Y281130D01*
X156894Y281096D01*
X156827Y281085D01*
X156782Y281063D01*
X156760Y281052D01*
X156749D01*
X156527Y280941D01*
X156327Y280807D01*
X156149Y280674D01*
X156005Y280541D01*
X155883Y280418D01*
X155794Y280319D01*
X155749Y280252D01*
X155727Y280241D01*
Y280230D01*
X155594Y280019D01*
X155505Y279807D01*
X155438Y279596D01*
X155383Y279408D01*
X155360Y279241D01*
X155349Y279174D01*
Y279108D01*
X155338Y279063D01*
Y278852D01*
X155360Y278708D01*
X155416Y278430D01*
X155505Y278197D01*
X155594Y277974D01*
X155694Y277808D01*
X155738Y277730D01*
X155783Y277674D01*
X155816Y277630D01*
X155838Y277597D01*
X155849Y277574D01*
X155860Y277563D01*
X156071Y277341D01*
X156316Y277163D01*
X156560Y277008D01*
X156805Y276897D01*
X157027Y276808D01*
X157116Y276775D01*
X157194Y276741D01*
X157271Y276719D01*
X157316Y276708D01*
X157349Y276697D01*
X157360D01*
Y276486D01*
X154872D01*
Y276697D01*
X154972Y276719D01*
X155049Y276741D01*
X155116Y276763D01*
X155172Y276797D01*
X155216Y276819D01*
X155249Y276841D01*
X155260Y276852D01*
X155271Y276863D01*
X155316Y276908D01*
X155338Y276963D01*
X155383Y277052D01*
X155394Y277119D01*
Y277152D01*
X155383Y277219D01*
X155360Y277308D01*
X155338Y277408D01*
X155294Y277508D01*
X155260Y277608D01*
X155238Y277697D01*
X155216Y277752D01*
X155205Y277763D01*
Y277774D01*
X155094Y278085D01*
X155016Y278385D01*
X154949Y278652D01*
X154916Y278885D01*
X154894Y278996D01*
Y279085D01*
X154883Y279174D01*
X154872Y279241D01*
Y279563D01*
X154894Y279752D01*
X154949Y280107D01*
X155038Y280430D01*
X155083Y280585D01*
X155127Y280718D01*
X155172Y280852D01*
X155216Y280963D01*
X155260Y281063D01*
X155305Y281152D01*
X155338Y281219D01*
X155360Y281263D01*
X155371Y281296D01*
X155383Y281307D01*
X155594Y281629D01*
X155827Y281918D01*
X156060Y282163D01*
X156294Y282374D01*
X156394Y282463D01*
X156494Y282529D01*
X156582Y282596D01*
X156660Y282652D01*
X156727Y282696D01*
X156771Y282729D01*
X156805Y282740D01*
X156816Y282752D01*
X156994Y282840D01*
X157160Y282929D01*
X157505Y283063D01*
X157838Y283152D01*
X158138Y283218D01*
X158271Y283241D01*
X158382Y283252D01*
X158493Y283274D01*
X158582D01*
X158660Y283285D01*
X158716D01*
X158749D01*
X158760D01*
X158938Y283274D01*
D02*
G37*
G36*
X158882Y275475D02*
X159127Y275452D01*
X159371Y275408D01*
X159593Y275352D01*
X159816Y275297D01*
X160015Y275219D01*
X160204Y275141D01*
X160371Y275063D01*
X160527Y274986D01*
X160671Y274919D01*
X160782Y274841D01*
X160882Y274786D01*
X160971Y274730D01*
X161027Y274686D01*
X161060Y274664D01*
X161071Y274652D01*
X161304Y274441D01*
X161504Y274219D01*
X161682Y273986D01*
X161826Y273741D01*
X161960Y273486D01*
X162060Y273241D01*
X162149Y272997D01*
X162215Y272764D01*
X162271Y272542D01*
X162315Y272330D01*
X162338Y272142D01*
X162360Y271986D01*
X162371Y271853D01*
X162382Y271753D01*
Y271664D01*
X162371Y271308D01*
X162326Y270975D01*
X162260Y270664D01*
X162171Y270375D01*
X162060Y270109D01*
X161949Y269864D01*
X161826Y269642D01*
X161693Y269442D01*
X161571Y269264D01*
X161449Y269109D01*
X161327Y268975D01*
X161226Y268864D01*
X161138Y268775D01*
X161071Y268709D01*
X161027Y268675D01*
X161015Y268664D01*
X160815Y268520D01*
X160615Y268397D01*
X160404Y268298D01*
X160193Y268197D01*
X159993Y268120D01*
X159793Y268064D01*
X159604Y268009D01*
X159415Y267964D01*
X159249Y267931D01*
X159093Y267909D01*
X158949Y267886D01*
X158838Y267875D01*
X158738Y267864D01*
X158660D01*
X158616D01*
X158605D01*
X158316Y267875D01*
X158027Y267909D01*
X157760Y267964D01*
X157516Y268031D01*
X157282Y268109D01*
X157060Y268209D01*
X156860Y268298D01*
X156671Y268397D01*
X156516Y268509D01*
X156371Y268598D01*
X156238Y268686D01*
X156138Y268775D01*
X156060Y268842D01*
X155994Y268898D01*
X155960Y268931D01*
X155949Y268942D01*
X155760Y269153D01*
X155594Y269364D01*
X155460Y269597D01*
X155338Y269831D01*
X155238Y270064D01*
X155160Y270297D01*
X155094Y270519D01*
X155038Y270731D01*
X155005Y270942D01*
X154972Y271131D01*
X154960Y271297D01*
X154949Y271442D01*
X154938Y271564D01*
Y272019D01*
X154960Y272297D01*
X155016Y272564D01*
X155071Y272819D01*
X155149Y273053D01*
X155238Y273275D01*
X155327Y273475D01*
X155427Y273664D01*
X155516Y273830D01*
X155616Y273975D01*
X155705Y274108D01*
X155783Y274208D01*
X155849Y274297D01*
X155905Y274353D01*
X155938Y274397D01*
X155949Y274408D01*
X156149Y274597D01*
X156371Y274763D01*
X156594Y274908D01*
X156816Y275030D01*
X157038Y275130D01*
X157260Y275219D01*
X157471Y275297D01*
X157682Y275352D01*
X157871Y275397D01*
X158049Y275430D01*
X158216Y275452D01*
X158349Y275464D01*
X158460Y275475D01*
X158549Y275486D01*
X158593D01*
X158616D01*
X158882Y275475D01*
D02*
G37*
G36*
X162215Y258365D02*
X159938Y258032D01*
Y258232D01*
X160116Y258287D01*
X160271Y258343D01*
X160426Y258410D01*
X160560Y258476D01*
X160693Y258554D01*
X160804Y258632D01*
X160915Y258699D01*
X161004Y258765D01*
X161093Y258843D01*
X161160Y258898D01*
X161226Y258954D01*
X161271Y259010D01*
X161315Y259054D01*
X161338Y259087D01*
X161349Y259099D01*
X161360Y259110D01*
X161515Y259354D01*
X161626Y259610D01*
X161704Y259887D01*
X161760Y260143D01*
X161782Y260254D01*
X161793Y260365D01*
X161804Y260465D01*
Y260554D01*
X161815Y260620D01*
Y261254D01*
X161804Y261343D01*
X161793Y261420D01*
X161771Y261476D01*
X161760Y261531D01*
X161749Y261565D01*
X161738Y261576D01*
Y261587D01*
X161660Y261676D01*
X161593Y261732D01*
X161538Y261765D01*
X161515Y261776D01*
X161449Y261787D01*
X161349Y261798D01*
X161226Y261809D01*
X161104D01*
X160982Y261820D01*
X160882D01*
X160815D01*
X160804D01*
X160793D01*
X158771D01*
X158782Y261643D01*
X158793Y261487D01*
X158816Y261354D01*
X158838Y261243D01*
X158871Y261154D01*
X158893Y261087D01*
X158905Y261054D01*
X158916Y261043D01*
X158971Y260943D01*
X159049Y260854D01*
X159138Y260765D01*
X159227Y260698D01*
X159304Y260643D01*
X159371Y260598D01*
X159415Y260576D01*
X159438Y260565D01*
X159593Y260487D01*
X159760Y260432D01*
X159927Y260387D01*
X160082Y260343D01*
X160227Y260321D01*
X160338Y260298D01*
X160382D01*
X160415Y260287D01*
X160426D01*
X160438D01*
Y260087D01*
X156683D01*
Y260287D01*
X156982Y260332D01*
X157238Y260387D01*
X157449Y260454D01*
X157627Y260521D01*
X157771Y260587D01*
X157871Y260632D01*
X157927Y260676D01*
X157949Y260687D01*
X158094Y260821D01*
X158193Y260976D01*
X158271Y261143D01*
X158316Y261298D01*
X158349Y261454D01*
X158360Y261576D01*
X158371Y261620D01*
Y261820D01*
X155449D01*
Y260809D01*
X155460Y260687D01*
Y260576D01*
X155483Y260376D01*
X155494Y260232D01*
X155516Y260109D01*
X155538Y260032D01*
X155549Y259987D01*
Y259976D01*
X155616Y259798D01*
X155694Y259632D01*
X155772Y259498D01*
X155860Y259387D01*
X155927Y259298D01*
X155994Y259243D01*
X156038Y259198D01*
X156049Y259187D01*
X156194Y259087D01*
X156360Y258998D01*
X156549Y258932D01*
X156727Y258865D01*
X156894Y258821D01*
X157038Y258787D01*
X157082Y258765D01*
X157127D01*
X157149Y258754D01*
X157160D01*
Y258554D01*
X155038D01*
Y264553D01*
X155227D01*
Y264320D01*
X155238Y264198D01*
X155249Y264087D01*
X155271Y263998D01*
X155305Y263920D01*
X155338Y263854D01*
X155360Y263809D01*
X155371Y263787D01*
X155383Y263776D01*
X155472Y263687D01*
X155560Y263620D01*
X155605Y263598D01*
X155638Y263587D01*
X155660Y263576D01*
X155672D01*
X155727Y263565D01*
X155805Y263554D01*
X155905D01*
X156005Y263543D01*
X156105D01*
X156183D01*
X156238D01*
X156249D01*
X156260D01*
X160993D01*
X161182D01*
X161327Y263554D01*
X161449Y263565D01*
X161538Y263576D01*
X161604Y263587D01*
X161637Y263598D01*
X161660Y263609D01*
X161671D01*
X161782Y263665D01*
X161860Y263742D01*
X161904Y263798D01*
X161915Y263809D01*
Y263820D01*
X161949Y263898D01*
X161982Y263976D01*
X162015Y264142D01*
Y264209D01*
X162026Y264265D01*
Y264553D01*
X162215D01*
Y258365D01*
D02*
G37*
G36*
X162382Y256799D02*
X162238Y256721D01*
X162137Y256643D01*
X162082Y256576D01*
X162060Y256565D01*
Y256554D01*
X161993Y256443D01*
X161960Y256354D01*
X161949Y256288D01*
Y256265D01*
X161971Y256132D01*
X162004Y255988D01*
X162026Y255932D01*
X162038Y255888D01*
X162060Y255854D01*
Y255843D01*
X162126Y255677D01*
X162171Y255532D01*
X162215Y255399D01*
X162249Y255299D01*
X162271Y255210D01*
X162293Y255143D01*
X162304Y255099D01*
Y255088D01*
X162349Y254866D01*
X162360Y254754D01*
X162371Y254654D01*
X162382Y254566D01*
Y254443D01*
X162371Y254243D01*
X162349Y254054D01*
X162326Y253877D01*
X162282Y253710D01*
X162238Y253555D01*
X162182Y253410D01*
X162115Y253277D01*
X162060Y253155D01*
X162004Y253044D01*
X161937Y252943D01*
X161882Y252866D01*
X161837Y252788D01*
X161793Y252732D01*
X161760Y252699D01*
X161749Y252677D01*
X161738Y252666D01*
X161615Y252544D01*
X161482Y252432D01*
X161360Y252332D01*
X161226Y252255D01*
X161093Y252188D01*
X160960Y252133D01*
X160726Y252044D01*
X160515Y251988D01*
X160426Y251977D01*
X160349Y251966D01*
X160282Y251955D01*
X160238D01*
X160204D01*
X160193D01*
X159938Y251977D01*
X159693Y252021D01*
X159482Y252088D01*
X159293Y252166D01*
X159149Y252255D01*
X159038Y252321D01*
X158993Y252344D01*
X158960Y252366D01*
X158949Y252388D01*
X158938D01*
X158838Y252477D01*
X158727Y252588D01*
X158627Y252710D01*
X158516Y252843D01*
X158316Y253121D01*
X158138Y253410D01*
X158060Y253543D01*
X157982Y253677D01*
X157916Y253788D01*
X157860Y253899D01*
X157816Y253977D01*
X157782Y254043D01*
X157771Y254088D01*
X157760Y254099D01*
X157682Y254255D01*
X157605Y254410D01*
X157538Y254543D01*
X157471Y254654D01*
X157416Y254766D01*
X157371Y254854D01*
X157327Y254943D01*
X157282Y255010D01*
X157227Y255121D01*
X157182Y255199D01*
X157160Y255243D01*
X157149Y255254D01*
X157060Y255377D01*
X156971Y255477D01*
X156883Y255566D01*
X156805Y255632D01*
X156738Y255677D01*
X156694Y255710D01*
X156660Y255732D01*
X156649Y255743D01*
X156505Y255810D01*
X156371Y255843D01*
X156316D01*
X156271Y255854D01*
X156238D01*
X156227D01*
X156094Y255843D01*
X155960Y255810D01*
X155849Y255754D01*
X155749Y255699D01*
X155672Y255643D01*
X155616Y255588D01*
X155571Y255554D01*
X155560Y255543D01*
X155460Y255421D01*
X155394Y255277D01*
X155338Y255132D01*
X155305Y254999D01*
X155283Y254877D01*
X155271Y254777D01*
Y254688D01*
X155283Y254555D01*
X155294Y254432D01*
X155360Y254188D01*
X155449Y253966D01*
X155549Y253777D01*
X155649Y253610D01*
X155694Y253543D01*
X155738Y253488D01*
X155772Y253444D01*
X155805Y253410D01*
X155816Y253399D01*
X155827Y253388D01*
X156049Y253177D01*
X156282Y253010D01*
X156516Y252877D01*
X156749Y252777D01*
X156949Y252699D01*
X157038Y252677D01*
X157116Y252655D01*
X157171Y252643D01*
X157216Y252632D01*
X157249Y252621D01*
X157260D01*
Y252399D01*
X154872Y252455D01*
Y252610D01*
X154983Y252643D01*
X155071Y252666D01*
X155138Y252688D01*
X155194Y252721D01*
X155238Y252732D01*
X155260Y252755D01*
X155283Y252766D01*
X155327Y252832D01*
X155349Y252899D01*
X155360Y252955D01*
Y252977D01*
X155349Y253044D01*
X155338Y253121D01*
X155271Y253288D01*
X155249Y253366D01*
X155216Y253432D01*
X155205Y253477D01*
X155194Y253488D01*
X155138Y253610D01*
X155083Y253732D01*
X155049Y253832D01*
X155016Y253921D01*
X154994Y253988D01*
X154972Y254043D01*
X154960Y254077D01*
Y254088D01*
X154905Y254332D01*
X154894Y254443D01*
X154883Y254555D01*
X154872Y254643D01*
Y254766D01*
X154883Y254943D01*
X154894Y255110D01*
X154972Y255421D01*
X155060Y255699D01*
X155116Y255821D01*
X155172Y255932D01*
X155238Y256021D01*
X155294Y256110D01*
X155338Y256188D01*
X155383Y256254D01*
X155427Y256299D01*
X155460Y256332D01*
X155472Y256354D01*
X155483Y256365D01*
X155594Y256476D01*
X155716Y256565D01*
X155838Y256654D01*
X155960Y256721D01*
X156205Y256832D01*
X156438Y256910D01*
X156638Y256954D01*
X156716Y256965D01*
X156794Y256976D01*
X156860Y256988D01*
X156905D01*
X156927D01*
X156938D01*
X157127Y256976D01*
X157293Y256954D01*
X157460Y256921D01*
X157594Y256876D01*
X157716Y256832D01*
X157793Y256799D01*
X157849Y256776D01*
X157871Y256765D01*
X158027Y256665D01*
X158160Y256565D01*
X158293Y256454D01*
X158405Y256354D01*
X158493Y256254D01*
X158571Y256176D01*
X158616Y256132D01*
X158627Y256110D01*
X158693Y256021D01*
X158760Y255932D01*
X158893Y255710D01*
X159027Y255477D01*
X159160Y255243D01*
X159271Y255032D01*
X159316Y254943D01*
X159360Y254854D01*
X159393Y254788D01*
X159415Y254743D01*
X159427Y254710D01*
X159438Y254699D01*
X159560Y254454D01*
X159671Y254255D01*
X159771Y254077D01*
X159849Y253943D01*
X159915Y253843D01*
X159960Y253777D01*
X159993Y253732D01*
X160004Y253721D01*
X160082Y253621D01*
X160160Y253543D01*
X160238Y253466D01*
X160316Y253410D01*
X160371Y253366D01*
X160415Y253332D01*
X160449Y253321D01*
X160460Y253310D01*
X160549Y253266D01*
X160638Y253221D01*
X160793Y253188D01*
X160860Y253177D01*
X160904Y253166D01*
X160938D01*
X160949D01*
X161104Y253177D01*
X161238Y253221D01*
X161371Y253277D01*
X161482Y253344D01*
X161571Y253410D01*
X161637Y253466D01*
X161682Y253510D01*
X161693Y253521D01*
X161804Y253666D01*
X161882Y253821D01*
X161937Y253977D01*
X161971Y254121D01*
X161993Y254266D01*
X162015Y254366D01*
Y254466D01*
X162004Y254610D01*
X161993Y254754D01*
X161926Y255021D01*
X161826Y255265D01*
X161715Y255477D01*
X161604Y255654D01*
X161549Y255732D01*
X161504Y255788D01*
X161471Y255843D01*
X161438Y255876D01*
X161426Y255899D01*
X161415Y255910D01*
X161293Y256032D01*
X161171Y256132D01*
X160893Y256321D01*
X160604Y256476D01*
X160316Y256599D01*
X160182Y256643D01*
X160060Y256688D01*
X159960Y256721D01*
X159860Y256754D01*
X159782Y256776D01*
X159715Y256788D01*
X159682Y256799D01*
X159671D01*
Y256988D01*
X162382D01*
Y256799D01*
D02*
G37*
G36*
X162215Y247600D02*
X162026D01*
Y247766D01*
X162015Y247911D01*
X161993Y248033D01*
X161982Y248122D01*
X161960Y248188D01*
X161949Y248244D01*
X161937Y248266D01*
Y248277D01*
X161860Y248388D01*
X161782Y248466D01*
X161726Y248522D01*
X161715Y248533D01*
X161704D01*
X161626Y248555D01*
X161526Y248566D01*
X161404Y248588D01*
X161271D01*
X161149Y248600D01*
X161049D01*
X160982D01*
X160971D01*
X160960D01*
X158960D01*
Y248377D01*
X158949Y248177D01*
Y247989D01*
X158938Y247811D01*
X158927Y247655D01*
X158916Y247511D01*
X158905Y247389D01*
X158893Y247277D01*
X158882Y247177D01*
X158871Y247089D01*
Y247022D01*
X158860Y246966D01*
X158849Y246922D01*
X158838Y246889D01*
Y246866D01*
X158760Y246600D01*
X158660Y246366D01*
X158549Y246155D01*
X158427Y245989D01*
X158327Y245855D01*
X158238Y245755D01*
X158182Y245700D01*
X158160Y245678D01*
X157960Y245533D01*
X157760Y245422D01*
X157560Y245344D01*
X157382Y245289D01*
X157216Y245255D01*
X157082Y245244D01*
X157038Y245233D01*
X157005D01*
X156982D01*
X156971D01*
X156816Y245244D01*
X156671Y245267D01*
X156538Y245300D01*
X156405Y245333D01*
X156171Y245444D01*
X155971Y245567D01*
X155805Y245700D01*
X155749Y245755D01*
X155694Y245800D01*
X155649Y245844D01*
X155616Y245878D01*
X155605Y245900D01*
X155594Y245911D01*
X155494Y246044D01*
X155405Y246200D01*
X155338Y246366D01*
X155271Y246544D01*
X155172Y246911D01*
X155105Y247277D01*
X155083Y247444D01*
X155071Y247611D01*
X155049Y247755D01*
Y247877D01*
X155038Y247989D01*
Y251255D01*
X155227D01*
Y251088D01*
X155238Y250944D01*
X155260Y250833D01*
X155271Y250733D01*
X155294Y250666D01*
X155316Y250622D01*
X155327Y250599D01*
Y250588D01*
X155360Y250521D01*
X155405Y250466D01*
X155483Y250388D01*
X155549Y250344D01*
X155560Y250333D01*
X155571D01*
X155638Y250310D01*
X155749Y250288D01*
X155860Y250277D01*
X155982Y250266D01*
X156105Y250255D01*
X156205D01*
X156271D01*
X156282D01*
X156294D01*
X160960D01*
X161160D01*
X161327Y250266D01*
X161449Y250277D01*
X161549Y250288D01*
X161626Y250310D01*
X161671Y250322D01*
X161693Y250333D01*
X161704D01*
X161804Y250399D01*
X161871Y250477D01*
X161926Y250544D01*
X161937Y250566D01*
Y250577D01*
X161971Y250655D01*
X161993Y250755D01*
X162015Y250977D01*
X162026Y251088D01*
Y251255D01*
X162215D01*
Y247600D01*
D02*
G37*
%LPC*%
G36*
X169665Y294812D02*
X169565D01*
X169509D01*
X169487D01*
X169198D01*
X168942Y294789D01*
X168687Y294778D01*
X168454Y294745D01*
X168243Y294711D01*
X168054Y294678D01*
X167876Y294645D01*
X167709Y294601D01*
X167576Y294567D01*
X167454Y294534D01*
X167343Y294500D01*
X167265Y294467D01*
X167198Y294434D01*
X167143Y294423D01*
X167120Y294401D01*
X167109D01*
X166931Y294301D01*
X166776Y294189D01*
X166643Y294067D01*
X166521Y293945D01*
X166432Y293823D01*
X166343Y293701D01*
X166276Y293578D01*
X166220Y293456D01*
X166187Y293345D01*
X166154Y293245D01*
X166132Y293145D01*
X166109Y293067D01*
Y292989D01*
X166098Y292945D01*
Y292901D01*
X166109Y292712D01*
X166143Y292523D01*
X166198Y292367D01*
X166243Y292223D01*
X166298Y292112D01*
X166354Y292023D01*
X166387Y291979D01*
X166398Y291956D01*
X166521Y291812D01*
X166676Y291679D01*
X166843Y291556D01*
X167009Y291467D01*
X167154Y291390D01*
X167287Y291323D01*
X167332Y291301D01*
X167365Y291290D01*
X167387Y291279D01*
X167398D01*
X167532Y291234D01*
X167687Y291190D01*
X168020Y291123D01*
X168376Y291079D01*
X168720Y291045D01*
X168887Y291034D01*
X169031Y291023D01*
X169165D01*
X169287Y291012D01*
X169387D01*
X169454D01*
X169509D01*
X169520D01*
X169742D01*
X169942Y291023D01*
X170142Y291034D01*
X170331Y291056D01*
X170498Y291079D01*
X170665Y291101D01*
X170809Y291123D01*
X170942Y291145D01*
X171064Y291167D01*
X171164Y291190D01*
X171253Y291212D01*
X171331Y291234D01*
X171387Y291256D01*
X171431Y291267D01*
X171453Y291279D01*
X171464D01*
X171720Y291378D01*
X171953Y291501D01*
X172131Y291623D01*
X172287Y291734D01*
X172409Y291834D01*
X172486Y291923D01*
X172542Y291979D01*
X172553Y292001D01*
X172642Y292145D01*
X172698Y292301D01*
X172742Y292445D01*
X172775Y292589D01*
X172798Y292723D01*
X172809Y292823D01*
Y292912D01*
X172798Y293056D01*
X172786Y293201D01*
X172709Y293445D01*
X172620Y293667D01*
X172498Y293845D01*
X172387Y293978D01*
X172298Y294089D01*
X172220Y294145D01*
X172209Y294167D01*
X172198D01*
X172020Y294278D01*
X171831Y294378D01*
X171620Y294467D01*
X171409Y294534D01*
X171176Y294601D01*
X170953Y294656D01*
X170509Y294734D01*
X170309Y294756D01*
X170109Y294778D01*
X169942Y294789D01*
X169787Y294800D01*
X169665Y294812D01*
D02*
G37*
G36*
X169398Y262959D02*
X166265D01*
Y262393D01*
X166287Y262093D01*
X166332Y261848D01*
X166387Y261626D01*
X166465Y261459D01*
X166543Y261326D01*
X166598Y261237D01*
X166643Y261182D01*
X166665Y261159D01*
X166832Y261026D01*
X167020Y260937D01*
X167220Y260871D01*
X167409Y260815D01*
X167587Y260793D01*
X167665Y260782D01*
X167731D01*
X167787Y260771D01*
X167831D01*
X167854D01*
X167865D01*
X168065Y260782D01*
X168243Y260804D01*
X168409Y260837D01*
X168543Y260871D01*
X168642Y260915D01*
X168720Y260948D01*
X168765Y260970D01*
X168787Y260982D01*
X168909Y261070D01*
X169009Y261159D01*
X169087Y261259D01*
X169153Y261348D01*
X169209Y261437D01*
X169242Y261504D01*
X169254Y261548D01*
X169265Y261559D01*
X169309Y261715D01*
X169342Y261881D01*
X169365Y262070D01*
X169376Y262248D01*
X169387Y262404D01*
X169398Y262537D01*
Y262959D01*
D02*
G37*
G36*
Y240695D02*
X166265D01*
Y240128D01*
X166287Y239828D01*
X166332Y239584D01*
X166387Y239362D01*
X166465Y239195D01*
X166543Y239062D01*
X166598Y238973D01*
X166643Y238917D01*
X166665Y238895D01*
X166832Y238762D01*
X167020Y238673D01*
X167220Y238606D01*
X167409Y238550D01*
X167587Y238528D01*
X167665Y238517D01*
X167731D01*
X167787Y238506D01*
X167831D01*
X167854D01*
X167865D01*
X168065Y238517D01*
X168243Y238539D01*
X168409Y238573D01*
X168543Y238606D01*
X168642Y238650D01*
X168720Y238684D01*
X168765Y238706D01*
X168787Y238717D01*
X168909Y238806D01*
X169009Y238895D01*
X169087Y238995D01*
X169153Y239084D01*
X169209Y239173D01*
X169242Y239239D01*
X169254Y239284D01*
X169265Y239295D01*
X169309Y239450D01*
X169342Y239617D01*
X169365Y239806D01*
X169376Y239984D01*
X169387Y240139D01*
X169398Y240273D01*
Y240695D01*
D02*
G37*
G36*
X158271Y292284D02*
X155438D01*
X155449Y292017D01*
X155460Y291784D01*
X155494Y291584D01*
X155516Y291428D01*
X155549Y291306D01*
X155583Y291229D01*
X155594Y291173D01*
X155605Y291162D01*
X155672Y291040D01*
X155738Y290929D01*
X155816Y290829D01*
X155894Y290751D01*
X155960Y290695D01*
X156016Y290651D01*
X156060Y290629D01*
X156071Y290617D01*
X156194Y290551D01*
X156316Y290506D01*
X156449Y290462D01*
X156571Y290440D01*
X156683Y290429D01*
X156771Y290418D01*
X156827D01*
X156838D01*
X156849D01*
X157016Y290429D01*
X157171Y290451D01*
X157305Y290484D01*
X157427Y290517D01*
X157516Y290551D01*
X157582Y290584D01*
X157627Y290606D01*
X157638Y290617D01*
X157749Y290695D01*
X157838Y290784D01*
X157916Y290873D01*
X157982Y290962D01*
X158038Y291051D01*
X158071Y291118D01*
X158094Y291162D01*
X158105Y291173D01*
X158160Y291318D01*
X158204Y291495D01*
X158227Y291684D01*
X158249Y291862D01*
X158260Y292028D01*
X158271Y292162D01*
Y292284D01*
D02*
G37*
G36*
X161293D02*
X161260D01*
X161249D01*
X160982D01*
X158682D01*
X158693Y291995D01*
X158704Y291751D01*
X158727Y291540D01*
X158760Y291362D01*
X158793Y291229D01*
X158816Y291140D01*
X158827Y291084D01*
X158838Y291062D01*
X158905Y290917D01*
X158993Y290795D01*
X159082Y290684D01*
X159171Y290595D01*
X159260Y290529D01*
X159327Y290484D01*
X159371Y290451D01*
X159393Y290440D01*
X159549Y290362D01*
X159704Y290306D01*
X159849Y290273D01*
X159993Y290240D01*
X160116Y290229D01*
X160204Y290218D01*
X160271D01*
X160282D01*
X160293D01*
X160460Y290229D01*
X160604Y290251D01*
X160738Y290273D01*
X160860Y290306D01*
X160960Y290351D01*
X161027Y290373D01*
X161082Y290395D01*
X161093Y290406D01*
X161215Y290484D01*
X161327Y290573D01*
X161426Y290662D01*
X161493Y290751D01*
X161560Y290829D01*
X161604Y290895D01*
X161626Y290940D01*
X161637Y290951D01*
X161693Y291084D01*
X161738Y291217D01*
X161771Y291340D01*
X161793Y291462D01*
X161804Y291562D01*
X161815Y291651D01*
Y291717D01*
X161804Y291817D01*
X161793Y291895D01*
X161771Y291973D01*
X161738Y292028D01*
X161715Y292084D01*
X161693Y292117D01*
X161682Y292128D01*
X161671Y292140D01*
X161615Y292184D01*
X161549Y292217D01*
X161404Y292262D01*
X161349Y292273D01*
X161293Y292284D01*
D02*
G37*
G36*
X158838Y273575D02*
X158738D01*
X158682D01*
X158660D01*
X158371D01*
X158116Y273553D01*
X157860Y273541D01*
X157627Y273508D01*
X157416Y273475D01*
X157227Y273442D01*
X157049Y273408D01*
X156883Y273364D01*
X156749Y273330D01*
X156627Y273297D01*
X156516Y273264D01*
X156438Y273230D01*
X156371Y273197D01*
X156316Y273186D01*
X156294Y273164D01*
X156282D01*
X156105Y273064D01*
X155949Y272953D01*
X155816Y272830D01*
X155694Y272708D01*
X155605Y272586D01*
X155516Y272464D01*
X155449Y272342D01*
X155394Y272219D01*
X155360Y272108D01*
X155327Y272008D01*
X155305Y271908D01*
X155283Y271831D01*
Y271753D01*
X155271Y271708D01*
Y271664D01*
X155283Y271475D01*
X155316Y271286D01*
X155371Y271131D01*
X155416Y270986D01*
X155472Y270875D01*
X155527Y270786D01*
X155560Y270742D01*
X155571Y270720D01*
X155694Y270575D01*
X155849Y270442D01*
X156016Y270320D01*
X156183Y270231D01*
X156327Y270153D01*
X156460Y270086D01*
X156505Y270064D01*
X156538Y270053D01*
X156560Y270042D01*
X156571D01*
X156705Y269997D01*
X156860Y269953D01*
X157194Y269886D01*
X157549Y269842D01*
X157894Y269809D01*
X158060Y269797D01*
X158204Y269786D01*
X158338D01*
X158460Y269775D01*
X158560D01*
X158627D01*
X158682D01*
X158693D01*
X158916D01*
X159116Y269786D01*
X159316Y269797D01*
X159504Y269820D01*
X159671Y269842D01*
X159838Y269864D01*
X159982Y269886D01*
X160116Y269908D01*
X160238Y269931D01*
X160338Y269953D01*
X160426Y269975D01*
X160504Y269997D01*
X160560Y270020D01*
X160604Y270031D01*
X160626Y270042D01*
X160638D01*
X160893Y270142D01*
X161126Y270264D01*
X161304Y270386D01*
X161460Y270497D01*
X161582Y270597D01*
X161660Y270686D01*
X161715Y270742D01*
X161726Y270764D01*
X161815Y270908D01*
X161871Y271064D01*
X161915Y271208D01*
X161949Y271353D01*
X161971Y271486D01*
X161982Y271586D01*
Y271675D01*
X161971Y271819D01*
X161960Y271964D01*
X161882Y272208D01*
X161793Y272430D01*
X161671Y272608D01*
X161560Y272742D01*
X161471Y272853D01*
X161393Y272908D01*
X161382Y272930D01*
X161371D01*
X161193Y273042D01*
X161004Y273142D01*
X160793Y273230D01*
X160582Y273297D01*
X160349Y273364D01*
X160127Y273419D01*
X159682Y273497D01*
X159482Y273519D01*
X159282Y273541D01*
X159116Y273553D01*
X158960Y273564D01*
X158838Y273575D01*
D02*
G37*
G36*
X158549Y248600D02*
X155449D01*
Y248388D01*
X155460Y248144D01*
X155505Y247933D01*
X155571Y247755D01*
X155638Y247600D01*
X155705Y247488D01*
X155772Y247411D01*
X155816Y247355D01*
X155827Y247344D01*
X155982Y247222D01*
X156160Y247133D01*
X156360Y247077D01*
X156549Y247033D01*
X156716Y247011D01*
X156794Y247000D01*
X156860Y246989D01*
X156916D01*
X156960D01*
X156982D01*
X156994D01*
X157271Y247000D01*
X157516Y247044D01*
X157716Y247100D01*
X157882Y247166D01*
X158016Y247233D01*
X158105Y247288D01*
X158160Y247333D01*
X158182Y247344D01*
X158305Y247488D01*
X158405Y247644D01*
X158471Y247811D01*
X158516Y247966D01*
X158538Y248111D01*
X158549Y248222D01*
X158560Y248266D01*
Y248422D01*
X158549Y248499D01*
Y248600D01*
D02*
G37*
G36*
X120661Y245094D02*
X117405D01*
Y241839D01*
X120661D01*
Y245094D01*
D02*
G37*
G36*
Y240839D02*
X117405D01*
Y237583D01*
X120661D01*
Y240839D01*
D02*
G37*
G36*
X131123Y206318D02*
X130323D01*
Y202783D01*
X135092D01*
X135020Y203328D01*
X134617Y204301D01*
X133976Y205136D01*
X133140Y205778D01*
X132167Y206181D01*
X131123Y206318D01*
D02*
G37*
%LPD*%
D13*
X45298Y247222D02*
Y261442D01*
X35602D02*
X45298D01*
X35602Y250000D02*
Y260039D01*
X107480Y170697D02*
X108136D01*
X119823Y182384D01*
X139201Y177461D02*
X139272Y177390D01*
X124900Y177461D02*
X139201D01*
X119823Y172383D02*
X124900Y177461D01*
D35*
X122713Y37992D02*
D03*
X95449Y49173D02*
D03*
X100902Y37992D02*
D03*
X117260Y49173D02*
D03*
X89996Y37992D02*
D03*
X106354Y49173D02*
D03*
X111807Y37992D02*
D03*
X128165Y49173D02*
D03*
D39*
X127161Y204945D02*
G03*
X120090Y207874I-7071J-7071D01*
G01*
X129980Y158268D02*
X134252Y153996D01*
X100689Y158268D02*
X129980D01*
X94390Y164567D02*
X100689Y158268D01*
X167004Y123890D02*
X171358Y128244D01*
X162894Y123890D02*
X167004D01*
X163287Y153543D02*
Y195866D01*
X163484Y196063D01*
X163287Y153543D02*
X179232Y137598D01*
X150000Y155709D02*
Y222342D01*
X145814Y174850D02*
Y207139D01*
X143348Y172383D02*
X145814Y174850D01*
X179232Y118402D02*
Y137598D01*
X158182Y92606D02*
X185282D01*
X140748Y212205D02*
X145814Y207139D01*
X74213Y212205D02*
X140748D01*
X40748Y245669D02*
X74213Y212205D01*
X127161Y204945D02*
X129823Y202284D01*
X72146Y207874D02*
X120090D01*
X76083Y216437D02*
X107677D01*
X45298Y247222D02*
X76083Y216437D01*
X40748Y245669D02*
Y255020D01*
X35602Y244418D02*
X72146Y207874D01*
X35602Y244418D02*
Y250000D01*
X70746Y202383D02*
X101005D01*
X30748Y242382D02*
X70746Y202383D01*
X30748Y242382D02*
Y254920D01*
X35602Y260039D02*
Y261442D01*
Y275324D01*
X107677Y216437D02*
X121161Y229921D01*
Y241339D01*
Y253150D02*
X130441D01*
X125768Y144783D02*
Y152539D01*
X69488Y234055D02*
X85532D01*
X50295Y253248D02*
X69488Y234055D01*
X50295Y253248D02*
Y255020D01*
X100766Y221457D02*
Y230119D01*
X100787Y230141D01*
X100613Y230315D02*
X100787Y230141D01*
X150000Y127728D02*
Y155709D01*
X146370Y152078D02*
X150000Y155709D01*
X144095Y152165D02*
X145299D01*
X145791Y152657D01*
X146370Y152078D01*
X125768Y152539D02*
X125847Y152461D01*
X134252Y107283D02*
Y153996D01*
X138287Y101378D02*
Y155709D01*
X129823Y164173D02*
X138287Y155709D01*
X129823Y164173D02*
Y172383D01*
X131752Y104783D02*
X134252Y107283D01*
X131693Y94784D02*
X138287Y101378D01*
X145142Y152078D02*
X146370D01*
X145131Y152067D02*
X145142Y152078D01*
X146260Y151969D02*
X146370Y152078D01*
X136496Y235846D02*
X150000Y222342D01*
Y127728D02*
X153839Y123890D01*
X136496Y259205D02*
Y269059D01*
Y235846D02*
Y259205D01*
X166996Y114890D02*
X171358Y110528D01*
X162894Y114890D02*
X166996D01*
X153839D02*
X162894D01*
X179232Y98655D02*
Y118402D01*
X171358Y110528D02*
X179232Y118402D01*
Y98655D02*
X185282Y92606D01*
X94390Y164567D02*
Y195768D01*
X129823Y172383D02*
X143348D01*
X109668Y247956D02*
Y253150D01*
X100000Y238287D02*
X109668Y247956D01*
X89764Y238287D02*
X100000D01*
X85532Y234055D02*
X89764Y238287D01*
X94587Y242028D02*
X100613Y248054D01*
X81398Y242028D02*
X94587D01*
X80709Y241339D02*
X81398Y242028D01*
X72047Y244150D02*
X74858Y241339D01*
X80709D01*
X100613Y248054D02*
Y253150D01*
X109668D02*
X121161D01*
X130441D02*
X136496Y259205D01*
X100613Y253150D02*
Y280964D01*
X111303Y289964D02*
X112253Y290914D01*
X100613Y289964D02*
X111303D01*
X135483D02*
X136433Y290914D01*
X124793Y289964D02*
X135483D01*
X124793Y273435D02*
Y280964D01*
Y273435D02*
X129169Y269059D01*
X136496D01*
X87123Y289964D02*
X88073Y290914D01*
X76433Y289964D02*
X87123D01*
X76433Y280964D02*
X76496Y280901D01*
Y269059D02*
Y280901D01*
X100886Y167339D02*
Y189496D01*
X103248Y187134D01*
X100766Y189616D02*
X100886Y189496D01*
X103248Y187134D02*
X107480D01*
X100766Y189616D02*
Y191831D01*
X107480Y179697D02*
Y187134D01*
X100591Y191831D02*
X100766D01*
X100886Y167339D02*
X104051Y164173D01*
X115748D01*
X119823Y168248D01*
Y172383D01*
X101005Y202383D02*
X119823D01*
X94390Y195768D02*
X101005Y202383D01*
X116023Y196134D02*
X119823Y192333D01*
X107480Y196134D02*
X116023D01*
X133998Y196358D02*
X139201D01*
X129823Y192183D02*
X133998Y196358D01*
X133929Y186390D02*
X139272D01*
X129823Y182283D02*
X133929Y186390D01*
X84134Y94784D02*
X95768D01*
X106890Y105905D02*
X125768Y124784D01*
X106890Y60614D02*
Y105905D01*
X95449Y49173D02*
X106890Y60614D01*
X106354Y49173D02*
X113484Y56303D01*
Y102500D01*
X125768Y114784D01*
Y94784D02*
X131693D01*
X125768Y104783D02*
X131752D01*
X88917D02*
X95768D01*
X87917Y105783D02*
X88917Y104783D01*
X84134Y105783D02*
X87917D01*
X84134Y114784D02*
X95768D01*
X84134Y124784D02*
X95768D01*
X87205Y144783D02*
X95768D01*
X84134Y141713D02*
X87205Y144783D01*
X84134Y133783D02*
Y141713D01*
D40*
X15945Y12894D02*
D03*
X199114D02*
D03*
Y300886D02*
D03*
X15945D02*
D03*
D41*
X158182Y73805D02*
D03*
X185282Y92606D02*
D03*
Y73805D02*
D03*
X158182Y92606D02*
D03*
X171358Y128244D02*
D03*
Y110528D02*
D03*
D42*
X76496Y304059D02*
D03*
X136496D02*
D03*
X76496Y269059D02*
D03*
X136496D02*
D03*
D43*
X31339Y279587D02*
D03*
D44*
X51339Y294587D02*
D03*
Y269587D02*
D03*
D45*
X129823Y172383D02*
D03*
Y182283D02*
D03*
Y192183D02*
D03*
Y202284D02*
D03*
X119823Y202383D02*
D03*
Y192333D02*
D03*
Y182384D02*
D03*
Y172383D02*
D03*
D46*
X16043Y97539D02*
D03*
X36516D02*
D03*
X57043D02*
D03*
D47*
X20748Y254920D02*
D03*
X30748D02*
D03*
X40748Y255020D02*
D03*
D48*
X50295D02*
D03*
D49*
X10607Y35919D02*
D03*
X10345Y76181D02*
D03*
Y56181D02*
D03*
D50*
X95768Y144783D02*
D03*
D51*
Y134783D02*
D03*
Y124784D02*
D03*
Y114784D02*
D03*
Y104783D02*
D03*
Y94784D02*
D03*
Y84784D02*
D03*
Y74783D02*
D03*
X125768Y144783D02*
D03*
Y134783D02*
D03*
Y124784D02*
D03*
Y114784D02*
D03*
Y104783D02*
D03*
Y94784D02*
D03*
Y84784D02*
D03*
Y74783D02*
D03*
D52*
X84543Y49173D02*
D03*
D53*
X57161Y43583D02*
D03*
X155547D02*
D03*
D54*
X161516Y105607D02*
D03*
Y133166D02*
D03*
D55*
X163484Y196063D02*
D03*
X100766Y221457D02*
D03*
X144095Y152165D02*
D03*
X125847Y152461D02*
D03*
X100766Y191831D02*
D03*
X139201Y196358D02*
D03*
D56*
X124793Y280964D02*
D03*
Y289964D02*
D03*
X139272Y177390D02*
D03*
Y186390D02*
D03*
X107480Y196134D02*
D03*
Y187134D02*
D03*
Y170697D02*
D03*
Y179697D02*
D03*
X153839Y114890D02*
D03*
Y123890D02*
D03*
X84134Y105783D02*
D03*
Y114784D02*
D03*
X84134Y124784D02*
D03*
Y133783D02*
D03*
X84134Y85783D02*
D03*
Y94784D02*
D03*
X162894Y123890D02*
D03*
Y114890D02*
D03*
X100613Y280964D02*
D03*
Y289964D02*
D03*
X72047Y253150D02*
D03*
Y244150D02*
D03*
X130413Y244122D02*
D03*
Y253122D02*
D03*
X76433Y289964D02*
D03*
Y280964D02*
D03*
X112253Y290914D02*
D03*
Y281914D02*
D03*
X136433Y290914D02*
D03*
Y281914D02*
D03*
X88073Y290914D02*
D03*
Y281914D02*
D03*
D57*
X121161Y253150D02*
D03*
Y241339D02*
D03*
X80709D02*
D03*
Y253150D02*
D03*
D58*
X100613Y230315D02*
D03*
D59*
X109668Y253150D02*
D03*
X100613D02*
D03*
X91558D02*
D03*
D60*
X51339Y294587D02*
X60811Y304059D01*
X76496D01*
X57043Y65409D02*
Y97539D01*
X27553Y35919D02*
X57043Y65409D01*
X10607Y35919D02*
X27553D01*
X36516Y74114D02*
Y97539D01*
X18583Y56181D02*
X36516Y74114D01*
X10345Y56181D02*
X18583D01*
M02*
