G04*
G04 #@! TF.GenerationSoftware,Altium Limited,Altium Designer,18.1.6 (161)*
G04*
G04 Layer_Color=128*
%FSLAX25Y25*%
%MOIN*%
G70*
G01*
G75*
%ADD56R,0.05500X0.05000*%
%ADD57R,0.05512X0.05512*%
%ADD58R,0.12992X0.09449*%
%ADD59R,0.03937X0.09449*%
D56*
X124793Y280964D02*
D03*
Y289964D02*
D03*
X139272Y177390D02*
D03*
Y186390D02*
D03*
X107480Y196134D02*
D03*
Y187134D02*
D03*
Y170697D02*
D03*
Y179697D02*
D03*
X153839Y114890D02*
D03*
Y123890D02*
D03*
X84134Y105783D02*
D03*
Y114784D02*
D03*
X84134Y124784D02*
D03*
Y133783D02*
D03*
X84134Y85783D02*
D03*
Y94784D02*
D03*
X162894Y123890D02*
D03*
Y114890D02*
D03*
X100613Y280964D02*
D03*
Y289964D02*
D03*
X72047Y253150D02*
D03*
Y244150D02*
D03*
X130413Y244122D02*
D03*
Y253122D02*
D03*
X76433Y289964D02*
D03*
Y280964D02*
D03*
X112253Y290914D02*
D03*
Y281914D02*
D03*
X136433Y290914D02*
D03*
Y281914D02*
D03*
X88073Y290914D02*
D03*
Y281914D02*
D03*
D57*
X121161Y253150D02*
D03*
Y241339D02*
D03*
X80709D02*
D03*
Y253150D02*
D03*
D58*
X100613Y230315D02*
D03*
D59*
X109668Y253150D02*
D03*
X100613D02*
D03*
X91558D02*
D03*
M02*
