G04*
G04 #@! TF.GenerationSoftware,Altium Limited,Altium Designer,18.1.6 (161)*
G04*
G04 Layer_Color=32768*
%FSLAX25Y25*%
%MOIN*%
G70*
G01*
G75*
%ADD14C,0.00787*%
D14*
X98490Y49173D02*
G03*
X98490Y49173I-3041J0D01*
G01*
X109396D02*
G03*
X109396Y49173I-3041J0D01*
G01*
X120301D02*
G03*
X120301Y49173I-3041J0D01*
G01*
X131207D02*
G03*
X131207Y49173I-3041J0D01*
G01*
X125754Y37992D02*
G03*
X125754Y37992I-3041J0D01*
G01*
X114848D02*
G03*
X114848Y37992I-3041J0D01*
G01*
X103943D02*
G03*
X103943Y37992I-3041J0D01*
G01*
X93037D02*
G03*
X93037Y37992I-3041J0D01*
G01*
X66322Y43583D02*
G03*
X66322Y43583I-9160J0D01*
G01*
X164708D02*
G03*
X164708Y43583I-9160J0D01*
G01*
X71473Y-20705D02*
G03*
X74209Y-23441I2736J0D01*
G01*
X71453Y-2575D02*
G03*
X68717Y161I-2736J0D01*
G01*
X138500Y-23441D02*
G03*
X141236Y-20705I0J2736D01*
G01*
X143992Y161D02*
G03*
X141256Y-2575I0J-2736D01*
G01*
X74209Y-23441D02*
X138500D01*
X87496Y46220D02*
Y49173D01*
X81591Y46220D02*
X87496D01*
X81591D02*
Y52126D01*
X87496D01*
Y49173D02*
Y52126D01*
X71453Y-20685D02*
Y-2575D01*
X141256Y-20685D02*
Y-2575D01*
X133914Y11992D02*
Y55000D01*
X45724Y181D02*
X166984D01*
X78795Y11992D02*
Y55000D01*
X45724D02*
X166984D01*
Y181D02*
Y55000D01*
X45724Y181D02*
Y55000D01*
Y11992D02*
X166984D01*
M02*
