M48
;Layer_Color=9474304
;FILE_FORMAT=2:5
INCH,LZ
;TYPE=PLATED
T1F00S00C0.02800
T2F00S00C0.03100
T3F00S00C0.03400
T4F00S00C0.03543
T5F00S00C0.03600
T6F00S00C0.04000
T7F00S00C0.05000
T9F00S00C0.06000
T10F00S00C0.12205
T11F00S00C0.12992
%
T01
X0125847Y0152461
X0144095Y0152165
X0139201Y0196358
X0163484Y0196063
X0100766Y0191831
Y0221457
T02
X0095768Y0074783
Y0084784
Y0094784
Y0104783
Y0114784
Y0124784
X0125768
Y0114784
Y0104783
Y0094784
Y0084784
Y0074783
X0158182Y0073805
Y0092606
X0185282
Y0073805
X0050295Y025502
X0040748
X0030748Y025492
X0020748
X0095768Y0144783
Y0134783
X0125768
Y0144783
T03
X0057043Y0097539
X0036516
X0016043
T04
X0089996Y0037992
X0100902
X0111807
X0122713
X0128165Y0049173
X011726
X0106354
X0095449
X0084543
T05
X0119823Y0172383
X0129823
Y0182283
Y0192183
Y0202284
X0119823Y0202383
Y0192333
Y0182384
X0136496Y0269059
X0076496
Y0304059
X0136496
T06
X0171358Y0110528
Y0128244
T07
X0010607Y0035919
X0010345Y0056181
Y0076181
T09
X0161516Y0105607
Y0133166
T10
X0199114Y0012894
X0015945
X0199114Y0300886
X0015945
T11
X0057161Y0043583
X0155547
M30
