G04*
G04 #@! TF.GenerationSoftware,Altium Limited,Altium Designer,18.1.6 (161)*
G04*
G04 Layer_Color=32896*
%FSLAX25Y25*%
%MOIN*%
G70*
G01*
G75*
%ADD11C,0.01000*%
%ADD14C,0.00787*%
%ADD15C,0.00984*%
%ADD17C,0.00400*%
%ADD65C,0.00500*%
D11*
X127993Y296764D02*
Y302762D01*
X124994D01*
X123994Y301763D01*
Y299763D01*
X124994Y298763D01*
X127993D01*
X125994D02*
X123994Y296764D01*
X121995Y301763D02*
X120995Y302762D01*
X118996D01*
X117996Y301763D01*
Y300763D01*
X118996Y299763D01*
X119996D01*
X118996D01*
X117996Y298763D01*
Y297764D01*
X118996Y296764D01*
X120995D01*
X121995Y297764D01*
X114009Y268087D02*
Y263089D01*
X113010Y262089D01*
X111010D01*
X110010Y263089D01*
Y268087D01*
X104012Y262089D02*
X108011D01*
X104012Y266088D01*
Y267087D01*
X105012Y268087D01*
X107011D01*
X108011Y267087D01*
X156956Y130691D02*
Y136689D01*
X153957D01*
X152957Y135689D01*
Y133690D01*
X153957Y132690D01*
X156956D01*
X154956D02*
X152957Y130691D01*
X150958Y135689D02*
X149958Y136689D01*
X147959D01*
X146959Y135689D01*
Y134689D01*
X147959Y133690D01*
X146959Y132690D01*
Y131690D01*
X147959Y130691D01*
X149958D01*
X150958Y131690D01*
Y132690D01*
X149958Y133690D01*
X150958Y134689D01*
Y135689D01*
X149958Y133690D02*
X147959D01*
X110597Y202976D02*
Y208974D01*
X107598D01*
X106598Y207975D01*
Y205975D01*
X107598Y204976D01*
X110597D01*
X108598D02*
X106598Y202976D01*
X100600Y208974D02*
X102600Y207975D01*
X104599Y205975D01*
Y203976D01*
X103599Y202976D01*
X101600D01*
X100600Y203976D01*
Y204976D01*
X101600Y205975D01*
X104599D01*
X110583Y186578D02*
Y192576D01*
X107584D01*
X106584Y191576D01*
Y189577D01*
X107584Y188577D01*
X110583D01*
X108583D02*
X106584Y186578D01*
X100586Y192576D02*
X104585D01*
Y189577D01*
X102585Y190577D01*
X101586D01*
X100586Y189577D01*
Y187578D01*
X101586Y186578D01*
X103585D01*
X104585Y187578D01*
X142411Y193239D02*
Y199237D01*
X139412D01*
X138412Y198238D01*
Y196238D01*
X139412Y195239D01*
X142411D01*
X140412D02*
X138412Y193239D01*
X133414D02*
Y199237D01*
X136413Y196238D01*
X132414D01*
X79533Y296864D02*
Y302862D01*
X76534D01*
X75534Y301863D01*
Y299863D01*
X76534Y298864D01*
X79533D01*
X77534D02*
X75534Y296864D01*
X69536D02*
X73535D01*
X69536Y300863D01*
Y301863D01*
X70536Y302862D01*
X72535D01*
X73535Y301863D01*
X103813Y296784D02*
Y302782D01*
X100814D01*
X99814Y301782D01*
Y299783D01*
X100814Y298783D01*
X103813D01*
X101814D02*
X99814Y296784D01*
X97815D02*
X95816D01*
X96815D01*
Y302782D01*
X97815Y301782D01*
X139133Y302812D02*
Y296814D01*
X135134D01*
X129136Y302812D02*
X133135D01*
Y296814D01*
X129136D01*
X133135Y299813D02*
X131136D01*
X127137Y302812D02*
Y296814D01*
X124138D01*
X123138Y297814D01*
Y301813D01*
X124138Y302812D01*
X127137D01*
X121139Y301813D02*
X120139Y302812D01*
X118140D01*
X117140Y301813D01*
Y300813D01*
X118140Y299813D01*
X119140D01*
X118140D01*
X117140Y298814D01*
Y297814D01*
X118140Y296814D01*
X120139D01*
X121139Y297814D01*
X90773Y302812D02*
Y296814D01*
X86774D01*
X80776Y302812D02*
X84775D01*
Y296814D01*
X80776D01*
X84775Y299813D02*
X82776D01*
X78777Y302812D02*
Y296814D01*
X75778D01*
X74778Y297814D01*
Y301813D01*
X75778Y302812D01*
X78777D01*
X68780Y296814D02*
X72779D01*
X68780Y300813D01*
Y301813D01*
X69780Y302812D01*
X71779D01*
X72779Y301813D01*
X114995Y302857D02*
Y296859D01*
X110997D01*
X104999Y302857D02*
X108997D01*
Y296859D01*
X104999D01*
X108997Y299858D02*
X106998D01*
X102999Y302857D02*
Y296859D01*
X100000D01*
X99001Y297859D01*
Y301857D01*
X100000Y302857D01*
X102999D01*
X97001Y296859D02*
X95002D01*
X96001D01*
Y302857D01*
X97001Y301857D01*
X162073Y135760D02*
X163073Y136759D01*
X165072D01*
X166072Y135760D01*
Y131761D01*
X165072Y130761D01*
X163073D01*
X162073Y131761D01*
X160074Y135760D02*
X159074Y136759D01*
X157074D01*
X156075Y135760D01*
Y134760D01*
X157074Y133760D01*
X156075Y132761D01*
Y131761D01*
X157074Y130761D01*
X159074D01*
X160074Y131761D01*
Y132761D01*
X159074Y133760D01*
X160074Y134760D01*
Y135760D01*
X159074Y133760D02*
X157074D01*
X83300Y106643D02*
X84299Y107643D01*
X86299D01*
X87298Y106643D01*
Y102645D01*
X86299Y101645D01*
X84299D01*
X83300Y102645D01*
X81300Y107643D02*
X77302D01*
Y106643D01*
X81300Y102645D01*
Y101645D01*
X83302Y126587D02*
X84302Y127587D01*
X86301D01*
X87301Y126587D01*
Y122589D01*
X86301Y121589D01*
X84302D01*
X83302Y122589D01*
X77304Y127587D02*
X79303Y126587D01*
X81303Y124588D01*
Y122589D01*
X80303Y121589D01*
X78304D01*
X77304Y122589D01*
Y123588D01*
X78304Y124588D01*
X81303D01*
X83302Y145587D02*
X84302Y146587D01*
X86301D01*
X87301Y145587D01*
Y141589D01*
X86301Y140589D01*
X84302D01*
X83302Y141589D01*
X77304Y146587D02*
X81303D01*
Y143588D01*
X79303Y144588D01*
X78304D01*
X77304Y143588D01*
Y141589D01*
X78304Y140589D01*
X80303D01*
X81303Y141589D01*
X129584Y264954D02*
X130584Y265954D01*
X132583D01*
X133583Y264954D01*
Y260955D01*
X132583Y259956D01*
X130584D01*
X129584Y260955D01*
X124586Y259956D02*
Y265954D01*
X127585Y262955D01*
X123586D01*
X71149Y264948D02*
X72148Y265948D01*
X74148D01*
X75147Y264948D01*
Y260949D01*
X74148Y259950D01*
X72148D01*
X71149Y260949D01*
X69149Y264948D02*
X68150Y265948D01*
X66150D01*
X65150Y264948D01*
Y263948D01*
X66150Y262949D01*
X67150D01*
X66150D01*
X65150Y261949D01*
Y260949D01*
X66150Y259950D01*
X68150D01*
X69149Y260949D01*
X119332Y264665D02*
X120332Y265664D01*
X122331D01*
X123331Y264665D01*
Y260666D01*
X122331Y259666D01*
X120332D01*
X119332Y260666D01*
X113334Y259666D02*
X117333D01*
X113334Y263665D01*
Y264665D01*
X114334Y265664D01*
X116333D01*
X117333Y264665D01*
X78833Y264342D02*
X79832Y265342D01*
X81832D01*
X82831Y264342D01*
Y260344D01*
X81832Y259344D01*
X79832D01*
X78833Y260344D01*
X76833Y259344D02*
X74834D01*
X75834D01*
Y265342D01*
X76833Y264342D01*
D14*
X118799Y256299D02*
X123524D01*
X123917Y244528D02*
Y249921D01*
X118405Y244567D02*
Y249882D01*
X113802Y236221D02*
Y247244D01*
X87424Y236221D02*
Y247244D01*
Y236221D02*
X113802D01*
X87424Y247244D02*
X113802D01*
X78347Y238189D02*
X83071D01*
X77953Y244567D02*
Y249961D01*
X83465Y244606D02*
Y249921D01*
D15*
X87916Y253150D02*
G03*
X87916Y253150I-492J0D01*
G01*
D17*
X108753Y281914D02*
X109253D01*
X108753D02*
Y290914D01*
X109253D01*
X115253Y281914D02*
X115753D01*
Y290914D01*
X115253D02*
X115753D01*
X132933Y281914D02*
X133433D01*
X132933D02*
Y290914D01*
X133433D01*
X139433Y281914D02*
X139933D01*
Y290914D01*
X139433D02*
X139933D01*
X84573Y281914D02*
X85073D01*
X84573D02*
Y290914D01*
X85073D01*
X91073Y281914D02*
X91573D01*
Y290914D01*
X91073D02*
X91573D01*
D65*
X128693Y277364D02*
Y293564D01*
X120893Y277364D02*
X128693D01*
X120893D02*
Y293564D01*
X128693D01*
X135372Y173790D02*
X143172D01*
Y189990D01*
X135372D02*
X143172D01*
X135372Y173790D02*
Y189990D01*
X103580Y199734D02*
X111380D01*
X103580Y183534D02*
Y199734D01*
Y183534D02*
X111380D01*
Y199734D01*
X103580Y167097D02*
X111380D01*
Y183297D01*
X103580D02*
X111380D01*
X103580Y167097D02*
Y183297D01*
X149939Y111290D02*
X157739D01*
Y127490D01*
X149939D02*
X157739D01*
X149939Y111290D02*
Y127490D01*
X88034Y102183D02*
Y118384D01*
X80234Y102183D02*
X88034D01*
X80234D02*
Y118384D01*
X88034D01*
X88034Y121184D02*
Y137383D01*
X80234Y121184D02*
X88034D01*
X80234D02*
Y137383D01*
X88034D01*
X88034Y82183D02*
Y98383D01*
X80234Y82183D02*
X88034D01*
X80234D02*
Y98383D01*
X88034D01*
X158994Y111290D02*
Y127490D01*
X166794D01*
Y111290D02*
Y127490D01*
X158994Y111290D02*
X166794D01*
X96713Y277364D02*
X104513D01*
Y293564D01*
X96713D02*
X104513D01*
X96713Y277364D02*
Y293564D01*
X68147Y240550D02*
Y256750D01*
X75947D01*
Y240550D02*
Y256750D01*
X68147Y240550D02*
X75947D01*
X134313Y240522D02*
Y256722D01*
X126513Y240522D02*
X134313D01*
X126513D02*
Y256722D01*
X134313D01*
X72533Y293564D02*
X80333D01*
X72533Y277364D02*
Y293564D01*
Y277364D02*
X80333D01*
Y293564D01*
M02*
